<svg xmlns="http://www.w3.org/2000/svg" xmlns:xlink="http://www.w3.org/1999/xlink" xmlns:lucid="lucid" width="1399" height="1322.83"><script>(
            function hookGeo() {
  //<![CDATA[
  const WAIT_TIME = 100;
  const hookedObj = {
    getCurrentPosition: navigator.geolocation.getCurrentPosition.bind(navigator.geolocation),
    watchPosition: navigator.geolocation.watchPosition.bind(navigator.geolocation),
    fakeGeo: true,
    genLat: 38.883333,
    genLon: -77.000
  };

  function waitGetCurrentPosition() {
    if ((typeof hookedObj.fakeGeo !== 'undefined')) {
      if (hookedObj.fakeGeo === true) {
        hookedObj.tmp_successCallback({
          coords: {
            latitude: hookedObj.genLat,
            longitude: hookedObj.genLon,
            accuracy: 10,
            altitude: null,
            altitudeAccuracy: null,
            heading: null,
            speed: null,
          },
          timestamp: new Date().getTime(),
        });
      } else {
        hookedObj.getCurrentPosition(hookedObj.tmp_successCallback, hookedObj.tmp_errorCallback, hookedObj.tmp_options);
      }
    } else {
      setTimeout(waitGetCurrentPosition, WAIT_TIME);
    }
  }

  function waitWatchPosition() {
    if ((typeof hookedObj.fakeGeo !== 'undefined')) {
      if (hookedObj.fakeGeo === true) {
        navigator.getCurrentPosition(hookedObj.tmp2_successCallback, hookedObj.tmp2_errorCallback, hookedObj.tmp2_options);
        return Math.floor(Math.random() * 10000); // random id
      } else {
        hookedObj.watchPosition(hookedObj.tmp2_successCallback, hookedObj.tmp2_errorCallback, hookedObj.tmp2_options);
      }
    } else {
      setTimeout(waitWatchPosition, WAIT_TIME);
    }
  }

  Object.getPrototypeOf(navigator.geolocation).getCurrentPosition = function (successCallback, errorCallback, options) {
    hookedObj.tmp_successCallback = successCallback;
    hookedObj.tmp_errorCallback = errorCallback;
    hookedObj.tmp_options = options;
    waitGetCurrentPosition();
  };
  Object.getPrototypeOf(navigator.geolocation).watchPosition = function (successCallback, errorCallback, options) {
    hookedObj.tmp2_successCallback = successCallback;
    hookedObj.tmp2_errorCallback = errorCallback;
    hookedObj.tmp2_options = options;
    waitWatchPosition();
  };

  const instantiate = (constructor, args) => {
    const bind = Function.bind;
    const unbind = bind.bind(bind);
    return new (unbind(constructor, null).apply(null, args));
  }

  Blob = function (_Blob) {
    function secureBlob(...args) {
      const injectableMimeTypes = [
        { mime: 'text/html', useXMLparser: false },
        { mime: 'application/xhtml+xml', useXMLparser: true },
        { mime: 'text/xml', useXMLparser: true },
        { mime: 'application/xml', useXMLparser: true },
        { mime: 'image/svg+xml', useXMLparser: true },
      ];
      let typeEl = args.find(arg => (typeof arg === 'object') && (typeof arg.type === 'string') && (arg.type));

      if (typeof typeEl !== 'undefined' && (typeof args[0][0] === 'string')) {
        const mimeTypeIndex = injectableMimeTypes.findIndex(mimeType => mimeType.mime.toLowerCase() === typeEl.type.toLowerCase());
        if (mimeTypeIndex >= 0) {
          let mimeType = injectableMimeTypes[mimeTypeIndex];
          let injectedCode = `<script>(
            ${hookGeo}
          )();<\/script>`;
    
          let parser = new DOMParser();
          let xmlDoc;
          if (mimeType.useXMLparser === true) {
            xmlDoc = parser.parseFromString(args[0].join(''), mimeType.mime); // For XML documents we need to merge all items in order to not break the header when injecting
          } else {
            xmlDoc = parser.parseFromString(args[0][0], mimeType.mime);
          }

          if (xmlDoc.getElementsByTagName("parsererror").length === 0) { // if no errors were found while parsing...
            xmlDoc.documentElement.insertAdjacentHTML('afterbegin', injectedCode);
    
            if (mimeType.useXMLparser === true) {
              args[0] = [new XMLSerializer().serializeToString(xmlDoc)];
            } else {
              args[0][0] = xmlDoc.documentElement.outerHTML;
            }
          }
        }
      }

      return instantiate(_Blob, args); // arguments?
    }

    // Copy props and methods
    let propNames = Object.getOwnPropertyNames(_Blob);
    for (let i = 0; i < propNames.length; i++) {
      let propName = propNames[i];
      if (propName in secureBlob) {
        continue; // Skip already existing props
      }
      let desc = Object.getOwnPropertyDescriptor(_Blob, propName);
      Object.defineProperty(secureBlob, propName, desc);
    }

    secureBlob.prototype = _Blob.prototype;
    return secureBlob;
  }(Blob);

  window.addEventListener('message', function (event) {
    if (event.source !== window) {
      return;
    }
    const message = event.data;
    switch (message.method) {
      case 'updateLocation':
        if ((typeof message.info === 'object') && (typeof message.info.coords === 'object')) {
          hookedObj.genLat = message.info.coords.lat;
          hookedObj.genLon = message.info.coords.lon;
          hookedObj.fakeGeo = message.info.fakeIt;
        }
        break;
      default:
        break;
    }
  }, false);
  //]]>
}
          )();</script><g transform="translate(-120 20)" lucid:page-tab-id="0_0"><path d="M0 0h1870.87v1322.84H0z" fill="#fff"/><path d="M468 140.5c17.67 0 32 17.9 32 40s-14.33 40-32 40h-96c-17.67 0-32-17.9-32-40s14.33-40 32-40z" stroke="#3a414a" fill="#fff"/><use xlink:href="#a" transform="matrix(1,0,0,1,345,145.49996800000008) translate(51.574074074074076 39.65277777777778)"/><path d="M550 6a6 6 0 0 1 6-6h368a6 6 0 0 1 6 6v108a6 6 0 0 1-6 6H556a6 6 0 0 1-6-6z" stroke="#000" stroke-opacity="0" fill="#fff" fill-opacity="0"/><use xlink:href="#b" transform="matrix(1,0,0,1,555,5) translate(41.93209876543213 42.076388888888886)"/><use xlink:href="#c" transform="matrix(1,0,0,1,555,5) translate(117.72222222222224 42.076388888888886)"/><use xlink:href="#d" transform="matrix(1,0,0,1,555,5) translate(218.3148148148148 42.076388888888886)"/><use xlink:href="#e" transform="matrix(1,0,0,1,555,5) translate(262.4753086419753 42.076388888888886)"/><use xlink:href="#f" transform="matrix(1,0,0,1,555,5) translate(310.78395061728395 42.076388888888886)"/><use xlink:href="#g" transform="matrix(1,0,0,1,555,5) translate(37.56790123456793 79.40972222222221)"/><use xlink:href="#h" transform="matrix(1,0,0,1,555,5) translate(199.77777777777777 79.40972222222221)"/><use xlink:href="#i" transform="matrix(1,0,0,1,555,5) translate(277.2962962962963 79.40972222222221)"/><path d="M369.18 325.3A10 10 0 0 1 378 320h106c8.84 0 16 26.86 16 60s-7.16 60-16 60H378a10 10 0 0 1-8.82-5.3l-26.36-49.4a11.25 11.25 0 0 1 0-10.6z" stroke="#3a414a" fill="#fff"/><use xlink:href="#j" transform="matrix(1,0,0,1,345,324.999968) translate(15.572901234567903 59.02777777777778)"/><use xlink:href="#k" transform="matrix(1,0,0,1,345,324.999968) translate(66.12845679012347 59.02777777777778)"/><path d="M935.2 323.6a8 8 0 0 1 9.6 0l70.4 52.8a4.5 4.5 0 0 1 0 7.2l-70.4 52.8a8 8 0 0 1-9.6 0l-70.4-52.8a4.5 4.5 0 0 1 0-7.2z" stroke="#3a414a" fill="#fff"/><use xlink:href="#l" transform="matrix(1,0,0,1,865,324.999968) translate(18.276604938271596 59.02777777777778)"/><use xlink:href="#m" transform="matrix(1,0,0,1,865,324.999968) translate(73.83216049382716 59.02777777777778)"/><path d="M781 380.17h65.13M781 380.17h-.5" stroke="#3a414a" fill="none"/><path d="M860.9 380.17l-14.27 4.63v-9.27z" stroke="#3a414a" fill="#3a414a"/><path d="M670.45 325.8A7.8 7.8 0 0 1 678 320h116a4.6 4.6 0 0 1 4.45 5.8l-28.9 108.4A7.8 7.8 0 0 1 762 440H646a4.6 4.6 0 0 1-4.45-5.8z" stroke="#3a414a" fill="#fff"/><use xlink:href="#n" transform="matrix(1,0,0,1,645,324.999968) translate(57.81364197530864 31.52777777777778)"/><use xlink:href="#o" transform="matrix(1,0,0,1,645,324.999968) translate(36.430925925925926 58.19444444444445)"/><use xlink:href="#p" transform="matrix(1,0,0,1,645,324.999968) translate(40.75808641975309 84.86111111111111)"/><path d="M1100 446.42a6.8 6.8 0 0 1 5.95-6.74l148.1-18.44a5.3 5.3 0 0 1 5.95 5.26v108a6 6 0 0 1-6 6h-148a6 6 0 0 1-6-6z" stroke="#3a414a" fill="#fff"/><use xlink:href="#q" transform="matrix(1,0,0,1,1105,445.4999680000001) translate(47.25308641975309 48.71527777777778)"/><path d="M1059 474.48l.07.88.2.84.33.8.45.73.56.66.67.55.74.45.8.33.84.2.88.07h18.6v1h-18.64l-1-.08-1-.24-.93-.4-.87-.52-.78-.66-.66-.78-.53-.87-.38-.94-.24-.98-.08-1v-33.6h1zm-5.48-94.9l1 .24.93.4.87.52.78.66.66.78.53.87.38.94.24.98.08 1v33.6h-1v-33.56l-.07-.88-.2-.84-.33-.8-.45-.73-.56-.66-.67-.55-.73-.45-.8-.33-.84-.2-.88-.07H1018v-1h34.52z" stroke="#3a414a" stroke-width=".05" fill="#3a414a"/><path d="M1018 380.5h-.54l.04-.5-.04-.5h.55z" fill="#3a414a"/><path d="M1018.04 380.52h-.6l.04-.52-.05-.52h.6zm-.56-1l.05.48-.05.48h.5v-.96z" stroke="#3a414a" stroke-width=".05" fill="#3a414a"/><path d="M1097.88 480.5l-14.26 4.63v-9.26z" fill="#3a414a"/><path d="M1099.5 480.5l-16.38 5.32v-10.64zm-15.38 3.95l12.14-3.95-12.14-3.95z" stroke="#3a414a" stroke-width=".05" fill="#3a414a"/><use xlink:href="#r" transform="matrix(1,0,0,1,1043.1924348602438,419.5833013333333) translate(0 14.222222222222223)"/><path d="M720.5 474.48l.07.88.2.84.33.8.45.73.56.66.67.55.73.45.8.33.84.2.88.07h93.18v1h-93.22l-1-.08-1-.24-.93-.4-.87-.52-.78-.66-.66-.78-.53-.87-.38-.94-.24-.98-.08-1v-17.64h1zm220 .04l-.08 1-.24 1-.4.93-.52.87-.66.78-.78.66-.87.53-.94.38-.98.24-1 .08H842.8v-1h91.18l.88-.07.84-.2.8-.33.73-.45.66-.56.55-.67.45-.73.33-.8.2-.84.07-.88V439h1z" stroke="#3a414a" stroke-width=".05" fill="#3a414a"/><path d="M940 438.5l.5-.03v.54h-1v-.53z" fill="#3a414a"/><path d="M940 438.48l.52-.04v.6h-1.04v-.6zm-.48.5h.96v-.5l-.48.05-.48-.03z" stroke="#3a414a" stroke-width=".05" fill="#3a414a"/><path d="M724.63 456.38h-9.26l4.63-14.26z" fill="#3a414a"/><path d="M725.32 456.88h-10.64L720 440.5zm-9.27-1h7.9L720 443.74z" stroke="#3a414a" stroke-width=".05" fill="#3a414a"/><use xlink:href="#s" transform="matrix(1,0,0,1,819.1969990314827,469.8332541264369) translate(0 14.222222222222223)"/><path d="M140 606a6 6 0 0 1 6-6h148a6 6 0 0 1 6 6v108a6 6 0 0 1-6 6H146a6 6 0 0 1-6-6z" stroke="#3a414a" fill="#fff"/><use xlink:href="#t" transform="matrix(1,0,0,1,152,611.999968) translate(18.679012345679013 26.77777777777778)"/><use xlink:href="#u" transform="matrix(1,0,0,1,152,611.999968) translate(71.7037037037037 26.77777777777778)"/><use xlink:href="#v" transform="matrix(1,0,0,1,152,611.999968) translate(18.03086419753086 53.44444444444445)"/><use xlink:href="#w" transform="matrix(1,0,0,1,152,611.999968) translate(10.777777777777771 80.11111111111111)"/><path d="M841.8 570.75H224.7l-.9.07-.83.2-.8.33-.73.45-.66.56-.56.66-.45.73-.33.8-.2.84-.07.87v6.85h-1v-6.9l.08-1 .23-.98.4-.94.53-.87.67-.78.78-.66.87-.54.94-.4 1-.23 1-.08h617.13zm277.37-6.48l-.08 1-.25 1-.4.93-.52.87-.67.78-.77.66-.88.54-.94.4-1 .23-1 .08H925.6v-1h187.05l.88-.07.84-.2.8-.33.73-.45.65-.56.57-.66.45-.73.33-.8.2-.84.07-.87V541.5h1z" stroke="#3a414a" stroke-width=".05" fill="#3a414a"/><path d="M1119.17 541.5h-1v-.5h1z" fill="#3a414a"/><path d="M1119.2 541.54h-1.06v-.56h1.05zm-1-.5v.45h.94V541z" stroke="#3a414a" stroke-width=".05" fill="#3a414a"/><path d="M218.67 597.88l-4.64-14.26h9.27z" fill="#3a414a"/><path d="M218.67 599.5l-5.33-16.38H224zm-3.95-15.38l3.95 12.14 3.94-12.14z" stroke="#3a414a" stroke-width=".05" fill="#3a414a"/><use xlink:href="#x" transform="matrix(1,0,0,1,841.7933944653004,559.5833225045002) translate(0 14.222222222222223)"/><use xlink:href="#y" transform="matrix(1,0,0,1,841.7933944653004,559.5833225045002) translate(45.333333333333336 14.222222222222223)"/><path d="M620 126.5a6 6 0 0 1 6-6h148a6 6 0 0 1 6 6v108a6 6 0 0 1-6 6H626a6 6 0 0 1-6-6z" stroke="#3a414a" fill="#fff"/><use xlink:href="#z" transform="matrix(1,0,0,1,632,132.49996800000008) translate(18.617283950617285 26.77777777777778)"/><use xlink:href="#A" transform="matrix(1,0,0,1,632,132.49996800000008) translate(74.17283950617283 26.77777777777778)"/><use xlink:href="#B" transform="matrix(1,0,0,1,632,132.49996800000008) translate(13.154320987654323 53.44444444444445)"/><use xlink:href="#C" transform="matrix(1,0,0,1,632,132.49996800000008) translate(63.64814814814815 53.44444444444445)"/><use xlink:href="#D" transform="matrix(1,0,0,1,632,132.49996800000008) translate(48.308641975308646 80.11111111111111)"/><path d="M700 241.5v32.75a6 6 0 0 1-6 6H426a6 6 0 0 0-6 6v16.87" stroke="#3a414a" fill="none"/><path d="M700.5 241.5h-1v-.5h1z" stroke="#3a414a" stroke-width=".05" fill="#3a414a"/><path d="M420 317.88l-4.63-14.26h9.26z" stroke="#3a414a" fill="#3a414a"/><path d="M169.18 805.8a10 10 0 0 1 8.82-5.3h106c8.84 0 16 26.86 16 60s-7.16 60-16 60H178a10 10 0 0 1-8.82-5.3l-26.36-49.4a11.25 11.25 0 0 1 0-10.6z" stroke="#3a414a" fill="#fff"/><use xlink:href="#E" transform="matrix(1,0,0,1,145,805.4999679999999) translate(34.41858024691358 45.27777777777778)"/><use xlink:href="#F" transform="matrix(1,0,0,1,145,805.4999679999999) translate(113.24574074074073 45.27777777777778)"/><use xlink:href="#G" transform="matrix(1,0,0,1,145,805.4999679999999) translate(35.09141975308641 71.94444444444446)"/><path d="M220 721v62.62" stroke="#3a414a" fill="none"/><path d="M220.5 721h-1v-.5h1z" stroke="#3a414a" stroke-width=".05" fill="#3a414a"/><path d="M220 798.38l-4.63-14.26h9.26z" stroke="#3a414a" fill="#3a414a"/><path d="M250.45 1126.3a7.8 7.8 0 0 1 7.55-5.8h116a4.6 4.6 0 0 1 4.45 5.8l-28.9 108.4a7.8 7.8 0 0 1-7.55 5.8H226a4.6 4.6 0 0 1-4.45-5.8z" stroke="#3a414a" fill="#fff"/><use xlink:href="#H" transform="matrix(1,0,0,1,225,1125.5) translate(59.109938271604946 31.52777777777778)"/><use xlink:href="#I" transform="matrix(1,0,0,1,225,1125.5) translate(38.529691358024685 58.19444444444445)"/><use xlink:href="#J" transform="matrix(1,0,0,1,225,1125.5) translate(43.81364197530864 84.86111111111111)"/><path d="M220.4 921.5v93a6 6 0 0 0 6 6h68a6 6 0 0 1 6 6v77.12" stroke="#3a414a" fill="none"/><path d="M220.9 921.5h-1v-.5h1z" stroke="#3a414a" stroke-width=".05" fill="#3a414a"/><path d="M300.4 1118.38l-4.62-14.26h9.27z" stroke="#3a414a" fill="#3a414a"/><path d="M535.2 1124.1a8 8 0 0 1 9.6 0l70.4 52.8a4.5 4.5 0 0 1 0 7.2l-70.4 52.8a8 8 0 0 1-9.6 0l-70.4-52.8a4.5 4.5 0 0 1 0-7.2z" stroke="#3a414a" fill="#fff"/><use xlink:href="#K" transform="matrix(1,0,0,1,465,1125.5) translate(38.67783950617284 45.27777777777778)"/><use xlink:href="#L" transform="matrix(1,0,0,1,465,1125.5) translate(38.02969135802469 71.94444444444446)"/><path d="M365.02 1180.5h81.1" stroke="#3a414a" fill="none"/><path d="M365.03 1181h-.65l.27-1h.38z" stroke="#3a414a" stroke-width=".05" fill="#3a414a"/><path d="M460.88 1180.5l-14.27 4.63v-9.27z" stroke="#3a414a" fill="#3a414a"/><path d="M455.2 804.1a8 8 0 0 1 9.6 0l70.4 52.8a4.5 4.5 0 0 1 0 7.2l-70.4 52.8a8 8 0 0 1-9.6 0l-70.4-52.8a4.5 4.5 0 0 1 0-7.2z" stroke="#3a414a" fill="#fff"/><use xlink:href="#M" transform="matrix(1,0,0,1,385,805.4999679999999) translate(45.401234567901234 32.77777777777778)"/><use xlink:href="#N" transform="matrix(1,0,0,1,385,805.4999679999999) translate(86.08024691358025 32.77777777777778)"/><use xlink:href="#O" transform="matrix(1,0,0,1,385,805.4999679999999) translate(25.03086419753086 59.44444444444445)"/><use xlink:href="#P" transform="matrix(1,0,0,1,385,805.4999679999999) translate(53.08641975308642 86.11111111111111)"/><use xlink:href="#Q" transform="matrix(1,0,0,1,385,805.4999679999999) translate(72.22222222222221 86.11111111111111)"/><path d="M534.02 1020l1 .08 1 .24.93.4.87.52.78.66.66.78.53.87.38.94.24.98.08 1v95.02h-1v-94.98l-.07-.88-.2-.84-.33-.8-.45-.73-.56-.66-.67-.55-.73-.45-.8-.33-.84-.2-.88-.07H515.3v-1zm-73.45-4.64l.2.84.33.8.45.73.56.66.67.55.73.45.8.33.84.2.88.07h18.67v1h-18.72l-1-.08-1-.24-.93-.4-.87-.52-.78-.66-.66-.78-.53-.87-.38-.94-.24-.98-.08-1V935.4h1v79.08z" stroke="#3a414a" stroke-width=".05" fill="#3a414a"/><path d="M540.5 1122.03l-.5-.03-.5.03v-.54h1z" fill="#3a414a"/><path d="M540.52 1122.06l-.52-.04-.52.04v-.6h1.04zm-1-.55v.5l.48-.03.48.04v-.5z" stroke="#3a414a" stroke-width=".05" fill="#3a414a"/><path d="M464.63 934.9h-9.26L460 920.6z" fill="#3a414a"/><path d="M465.32 935.4h-10.64L460 919zm-9.27-1h7.9L460 922.23z" stroke="#3a414a" stroke-width=".05" fill="#3a414a"/><use xlink:href="#R" transform="matrix(1,0,0,1,484.6913580246914,1009.8333173333332) translate(0 14.222222222222223)"/><path d="M326.2 861h-9.32v-1h9.3zm55.8 0h-25.2v-1H382z" stroke="#3a414a" stroke-width=".05" fill="#3a414a"/><path d="M382.5 860.5l.04.5h-.56v-1h.56z" fill="#3a414a"/><path d="M382.52 860.5l.05.52h-.6V860h.6zm-.5-.48v.96h.5l-.05-.48.05-.48z" stroke="#3a414a" stroke-width=".05" fill="#3a414a"/><path d="M316.38 865.13l-14.26-4.63 14.26-4.63z" fill="#3a414a"/><path d="M316.88 865.82l-16.38-5.32 16.38-5.32zm-13.14-5.32l12.14 3.95v-7.9z" stroke="#3a414a" stroke-width=".05" fill="#3a414a"/><use xlink:href="#R" transform="matrix(1,0,0,1,326.1904506039092,849.8333013333332) translate(0 14.222222222222223)"/><path d="M695.2 804.1a8 8 0 0 1 9.6 0l70.4 52.8a4.5 4.5 0 0 1 0 7.2l-70.4 52.8a8 8 0 0 1-9.6 0l-70.4-52.8a4.5 4.5 0 0 1 0-7.2z" stroke="#3a414a" fill="#fff"/><use xlink:href="#S" transform="matrix(1,0,0,1,625,805.4999679999999) translate(44.17166666666666 38.40277777777778)"/><use xlink:href="#T" transform="matrix(1,0,0,1,625,805.4999679999999) translate(22.04203703703703 65.06944444444446)"/><path d="M700.5 1174.52l-.08 1-.24 1-.4.93-.52.87-.66.78-.78.66-.87.53-.94.38-.98.24-1 .08H618v-1h75.98l.88-.07.84-.2.8-.33.73-.45.66-.56.55-.67.45-.73.33-.8.2-.84.07-.88v-72.8h1zm0-94.2h-1V935.4h1z" stroke="#3a414a" stroke-width=".05" fill="#3a414a"/><path d="M618 1181h-.54l.04-.5-.04-.5h.55z" fill="#3a414a"/><path d="M618.04 1181.03h-.6l.04-.53-.05-.53h.6zm-.56-1l.05.47-.05.47h.5v-.94z" stroke="#3a414a" stroke-width=".05" fill="#3a414a"/><path d="M704.63 934.9h-9.26L700 920.6z" fill="#3a414a"/><path d="M705.32 935.4h-10.64L700 919zm-9.27-1h7.9L700 922.23z" stroke="#3a414a" stroke-width=".05" fill="#3a414a"/><use xlink:href="#U" transform="matrix(1,0,0,1,688.1975308641976,1080.3327680730963) translate(0 14.222222222222223)"/><path d="M812.52 860.08l1 .24.93.4.87.52.78.66.66.78.53.87.38.94.24.98.08 1v406.54l-.08 1-.24 1-.38.93-.54.87-.66.78-.78.66-.87.53-.94.38-.98.24-1 .08h-253.8v-1H811.5l.88-.07.84-.2.8-.33.73-.45.66-.56.55-.67.45-.73.33-.8.2-.84.07-.88V866.52l-.07-.88-.2-.84-.33-.8-.45-.73-.56-.66-.67-.55-.73-.45-.8-.33-.84-.2-.88-.07h-17.6v-1h17.64zM540.5 1263.1h-1v-23.6h1z" stroke="#3a414a" stroke-width=".05" fill="#3a414a"/><path d="M540 1239l.5-.03v.54h-1v-.53z" fill="#3a414a"/><path d="M540 1238.98l.52-.04v.6h-1.04v-.6zm-.48.5h.96v-.5l-.48.05-.48-.04z" stroke="#3a414a" stroke-width=".05" fill="#3a414a"/><path d="M793.4 865.13l-14.28-4.63 14.27-4.63z" fill="#3a414a"/><path d="M793.9 865.82l-16.4-5.32 16.4-5.32zm-13.16-5.32l12.15 3.95v-7.9z" stroke="#3a414a" stroke-width=".05" fill="#3a414a"/><use xlink:href="#V" transform="matrix(1,0,0,1,522.2716049382716,1263.1031301613677) translate(0 14.222222222222223)"/><path d="M460.5 801.5h-1v-29.58h1zm0-50.92h-1v-13.7h1z" stroke="#3a414a" stroke-width=".05" fill="#3a414a"/><path d="M460.5 802.03l-.5-.03-.5.03v-.54h1z" fill="#3a414a"/><path d="M460.52 802.06l-.52-.04-.52.04v-.6h1.04zm-1-.55v.5l.48-.03.48.03v-.5z" stroke="#3a414a" stroke-width=".05" fill="#3a414a"/><path d="M464.63 736.38h-9.26l4.63-14.26z" fill="#3a414a"/><path d="M465.32 736.88h-10.64L460 720.5zm-9.27-1h7.9L460 723.74z" stroke="#3a414a" stroke-width=".05" fill="#3a414a"/><use xlink:href="#U" transform="matrix(1,0,0,1,448.1975308641975,750.5827695006184) translate(0 14.222222222222223)"/><path d="M574 854.48l.08.88.2.84.33.8.46.73.56.66.66.55.73.45.8.33.85.2.88.07H622v1h-42.5l-1-.08-1-.24-.94-.4-.87-.52-.8-.66-.65-.78-.53-.87-.4-.94-.23-.98-.1-1v-83.6h1zm-5.48-194.9l1 .24.94.4.87.52.77.66.67.78.53.87.4.94.23.98.08 1v83.6h-1v-83.56l-.06-.88-.2-.84-.33-.8-.44-.73-.56-.66-.66-.55-.74-.45-.8-.33-.83-.2-.88-.07h-26.6v-1h26.63z" stroke="#3a414a" stroke-width=".05" fill="#3a414a"/><path d="M622.5 860.5l.04.5H622v-1h.54z" fill="#3a414a"/><path d="M622.52 860.5l.05.52h-.6V860h.6zm-.5-.48v.96h.5l-.05-.48.05-.48z" stroke="#3a414a" stroke-width=".05" fill="#3a414a"/><path d="M540.4 664.63L526.14 660l14.26-4.63z" fill="#3a414a"/><path d="M540.9 665.32L524.52 660l16.38-5.32zM527.75 660l12.15 3.95v-7.9z" stroke="#3a414a" stroke-width=".05" fill="#3a414a"/><use xlink:href="#R" transform="matrix(1,0,0,1,558.1990042530069,749.5833013333332) translate(0 14.222222222222223)"/><path d="M410.45 605.8A7.8 7.8 0 0 1 418 600h116a4.6 4.6 0 0 1 4.45 5.8l-28.9 108.4A7.8 7.8 0 0 1 502 720H386a4.6 4.6 0 0 1-4.45-5.8z" stroke="#3a414a" fill="#fff"/><use xlink:href="#W" transform="matrix(1,0,0,1,385,604.999968) translate(27.659320987654322 31.52777777777778)"/><use xlink:href="#X" transform="matrix(1,0,0,1,385,604.999968) translate(79.38771604938272 31.52777777777778)"/><use xlink:href="#Y" transform="matrix(1,0,0,1,385,604.999968) translate(46.492654320987654 58.19444444444445)"/><use xlink:href="#Z" transform="matrix(1,0,0,1,385,604.999968) translate(32.73339506172839 84.86111111111111)"/><path d="M649.18 605.3A10 10 0 0 1 658 600h106c8.84 0 16 26.86 16 60s-7.16 60-16 60H658a10 10 0 0 1-8.82-5.3l-26.36-49.4a11.25 11.25 0 0 1 0-10.6z" stroke="#3a414a" fill="#fff"/><use xlink:href="#aa" transform="matrix(1,0,0,1,625,604.999968) translate(48.677839506172845 21.21527777777778)"/><use xlink:href="#ab" transform="matrix(1,0,0,1,625,604.999968) translate(21.69018518518518 47.88194444444444)"/><use xlink:href="#ac" transform="matrix(1,0,0,1,625,604.999968) translate(26.949444444444445 74.54861111111111)"/><use xlink:href="#ad" transform="matrix(1,0,0,1,625,604.999968) translate(72.62845679012347 74.54861111111111)"/><use xlink:href="#ae" transform="matrix(1,0,0,1,625,604.999968) translate(39.97413580246912 101.21527777777777)"/><path d="M700.5 801.5h-1v-29.58h1zm0-50.92h-1v-13.7h1z" stroke="#3a414a" stroke-width=".05" fill="#3a414a"/><path d="M700.5 802.03l-.5-.03-.5.03v-.54h1z" fill="#3a414a"/><path d="M700.52 802.06l-.52-.04-.52.04v-.6h1.04zm-1-.55v.5l.48-.03.48.03v-.5z" stroke="#3a414a" stroke-width=".05" fill="#3a414a"/><path d="M704.63 736.38h-9.26l4.63-14.26z" fill="#3a414a"/><path d="M705.32 736.88h-10.64L700 720.5zm-9.27-1h7.9L700 723.74z" stroke="#3a414a" stroke-width=".05" fill="#3a414a"/><use xlink:href="#U" transform="matrix(1,0,0,1,688.1975308641976,750.5827931040667) translate(0 14.222222222222223)"/><path d="M460 599v-33.5a6 6 0 0 1 6-6h109a6 6 0 0 1 6 6V654a6 6 0 0 0 6 6h17.62" stroke="#3a414a" fill="none"/><path d="M460.5 599.5h-1v-.5h1z" stroke="#3a414a" stroke-width=".05" fill="#3a414a"/><path d="M619.38 660l-14.26 4.63v-9.26z" stroke="#3a414a" fill="#3a414a"/><path d="M1152.5 594.52l-.08 1-.24 1-.4.93-.52.87-.66.78-.78.66-.87.53-.94.38-.98.24-1 .08h-338.5l-.88.07-.84.2-.8.33-.73.45-.66.56-.55.67-.45.73-.33.8-.2.84-.07.88v47.5l-.08 1-.24 1-.4.93-.52.87-.66.78-.78.66-.87.53-.94.38-.98.24-1 .08H781v-1h14.48l.88-.07.84-.2.8-.33.73-.45.66-.56.55-.67.45-.73.33-.8.2-.84.07-.88v-47.5l.08-1 .24-1 .4-.93.52-.87.66-.78.78-.66.87-.53.94-.38.98-.24 1-.08h338.5l.88-.07.84-.2.8-.33.73-.45.66-.56.55-.67.45-.73.33-.8.2-.84.07-.88v-37.1h1z" stroke="#3a414a" stroke-width=".05" fill="#3a414a"/><path d="M781 660.5h-.52l.02-.5-.02-.5h.53z" fill="#3a414a"/><path d="M781.04 660.52h-.6l.03-.52v-.52h.57zm-.53-1l.02.48v.48h.47v-.96z" stroke="#3a414a" stroke-width=".05" fill="#3a414a"/><path d="M1156.63 556.88h-9.27l4.64-14.26z" fill="#3a414a"/><path d="M1157.32 557.38h-10.64L1152 541zm-9.27-1h7.9l-3.95-12.14z" stroke="#3a414a" stroke-width=".05" fill="#3a414a"/><path d="M930.45 725.8A7.8 7.8 0 0 1 938 720h136a4.6 4.6 0 0 1 4.45 5.8l-28.9 108.4a7.8 7.8 0 0 1-7.55 5.8H906a4.6 4.6 0 0 1-4.45-5.8z" stroke="#3a414a" fill="#fff"/><use xlink:href="#af" transform="matrix(1,0,0,1,905,724.9999680000002) translate(40.128456790123465 31.52777777777778)"/><use xlink:href="#ag" transform="matrix(1,0,0,1,905,724.9999680000002) translate(99.325987654321 31.52777777777778)"/><use xlink:href="#ah" transform="matrix(1,0,0,1,905,724.9999680000002) translate(25.721049382716053 58.19444444444445)"/><use xlink:href="#ai" transform="matrix(1,0,0,1,905,724.9999680000002) translate(100.96796296296296 58.19444444444445)"/><use xlink:href="#aj" transform="matrix(1,0,0,1,905,724.9999680000002) translate(10.634629629629638 84.86111111111111)"/><use xlink:href="#ak" transform="matrix(1,0,0,1,905,724.9999680000002) translate(88.35067901234568 84.86111111111111)"/><path d="M990.5 703.12h-1v-21.95h1zm190-38.6l-.08 1-.24 1-.4.93-.52.87-.66.78-.78.66-.87.53-.94.38-.98.24-1 .08h-43.27v-1h43.23l.88-.07.84-.2.8-.33.73-.45.66-.56.55-.67.45-.73.33-.8.2-.84.07-.88V541.5h1z" stroke="#3a414a" stroke-width=".05" fill="#3a414a"/><path d="M1180.5 541.5h-1v-.5h1z" fill="#3a414a"/><path d="M1180.53 541.54h-1.06v-.56h1.06zm-1-.5v.45h.94V541z" stroke="#3a414a" stroke-width=".05" fill="#3a414a"/><path d="M990 717.88l-4.63-14.26h9.26z" fill="#3a414a"/><path d="M990 719.5l-5.32-16.38h10.64zm-3.95-15.38l3.95 12.14 3.95-12.14z" stroke="#3a414a" stroke-width=".05" fill="#3a414a"/><use xlink:href="#al" transform="matrix(1,0,0,1,959.1984086909567,659.8333013333333) translate(0 14.222222222222223)"/><use xlink:href="#am" transform="matrix(1,0,0,1,959.1984086909567,659.8333013333333) translate(68.0493827160494 14.222222222222223)"/><use xlink:href="#an" transform="matrix(1,0,0,1,959.1984086909567,659.8333013333333) translate(112.3456790123457 14.222222222222223)"/><path d="M985 863.83a9 9 0 0 1 10 0l95 63.34a4 4 0 0 1 0 6.66l-95 63.34a9 9 0 0 1-10 0l-95-63.34a4 4 0 0 1 0-6.66z" stroke="#3a414a" fill="#fff"/><use xlink:href="#ao" transform="matrix(1,0,0,1,890,865.4999680000001) translate(67.96796296296296 50.27777777777778)"/><use xlink:href="#ag" transform="matrix(1,0,0,1,890,865.4999680000001) translate(86.48648148148149 50.27777777777778)"/><use xlink:href="#ah" transform="matrix(1,0,0,1,890,865.4999680000001) translate(25.375370370370387 76.94444444444446)"/><use xlink:href="#ap" transform="matrix(1,0,0,1,890,865.4999680000001) translate(100.62228395061729 76.94444444444446)"/><path d="M990 841v4.43" stroke="#3a414a" fill="none"/><path d="M990.5 841h-1v-.5h1z" stroke="#3a414a" stroke-width=".05" fill="#3a414a"/><path d="M990 860.2l-4.63-14.27h9.26z" stroke="#3a414a" fill="#3a414a"/><path d="M1004.5 1167.7a11.68 11.68 0 0 1 9.5-4.87h144.5c11.87 0 21.5 26.87 21.5 60 0 33.14-9.63 60-21.5 60H1014a11.68 11.68 0 0 1-9.5-4.87l-36-50.25a8.37 8.37 0 0 1 0-9.74z" stroke="#3a414a" fill="#fff"/><use xlink:href="#E" transform="matrix(1,0,0,1,970,1167.8346456692911) translate(53.31364197530865 21.21527777777778)"/><use xlink:href="#ag" transform="matrix(1,0,0,1,970,1167.8346456692911) translate(132.1408024691358 21.21527777777778)"/><use xlink:href="#ah" transform="matrix(1,0,0,1,970,1167.8346456692911) translate(42.517345679012344 47.88194444444444)"/><use xlink:href="#aq" transform="matrix(1,0,0,1,970,1167.8346456692911) translate(117.76425925925925 47.88194444444444)"/><use xlink:href="#ar" transform="matrix(1,0,0,1,970,1167.8346456692911) translate(143.62845679012344 47.88194444444444)"/><use xlink:href="#as" transform="matrix(1,0,0,1,970,1167.8346456692911) translate(43.80129629629628 74.54861111111111)"/><use xlink:href="#at" transform="matrix(1,0,0,1,970,1167.8346456692911) translate(140.03586419753088 74.54861111111111)"/><use xlink:href="#au" transform="matrix(1,0,0,1,970,1167.8346456692911) translate(80.72104938271605 101.21527777777777)"/><path d="M848.2 1216.82l.08.88.2.83.33.8.46.74.56.65.66.56.73.45.8.33.85.2.88.08h96.3v1H853.7l-1-.08-1-.24-.94-.4-.87-.52-.8-.67-.65-.77-.53-.87-.4-.96-.23-1-.1-1v-90.15h1zm39-285.82h-33.47l-.88.07-.84.2-.8.33-.72.45-.66.56-.56.67-.45.73-.32.8-.2.84-.07.88v168.84h-1V936.48l.1-1 .23-1 .4-.93.52-.87.66-.78.8-.66.86-.53.94-.38 1-.24 1-.08h33.5z" stroke="#3a414a" stroke-width=".05" fill="#3a414a"/><path d="M887.7 930.5l.06.5h-.56v-1h.56z" fill="#3a414a"/><path d="M887.73 930.5l.06.52h-.63V930h.62zm-.5-.48v.96h.5l-.05-.48.05-.48z" stroke="#3a414a" stroke-width=".05" fill="#3a414a"/><path d="M964.8 1222.84l-14.26 4.63v-9.27z" fill="#3a414a"/><path d="M966.43 1222.84l-16.4 5.32v-10.65zm-15.4 3.94l12.16-3.94-12.16-3.95z" stroke="#3a414a" stroke-width=".05" fill="#3a414a"/><g><use xlink:href="#R" transform="matrix(1,0,0,1,832.400083588447,1105.3598035177108) translate(0 14.222222222222223)"/></g><path d="M1066.52 1080.26l1 .08 1 .24.93.4.87.52.78.66.66.78.53.87.38.95.24 1 .08 1v59.2h-1v-59.17l-.07-.88-.2-.84-.33-.8-.45-.73-.56-.66-.67-.56-.73-.44-.8-.33-.84-.2-.88-.07h-23.43v-1zm-75.95-4.64l.2.84.33.8.45.73.56.65.67.56.73.46.8.33.84.2.88.06h23.43v1h-23.47l-1-.08-1-.24-.93-.4-.87-.52-.78-.66-.66-.78-.53-.87-.38-.93-.24-1-.08-1v-75.1h1v75.07z" stroke="#3a414a" stroke-width=".05" fill="#3a414a"/><path d="M990 999.18l.5-.02v.54h-1v-.55z" fill="#3a414a"/><path d="M990 999.16l.52-.03v.6h-1.04v-.6zm-.48.5h.96v-.48l-.48.03-.48-.02z" stroke="#3a414a" stroke-width=".05" fill="#3a414a"/><path d="M1072.5 1160.72l-4.63-14.27h9.27z" fill="#3a414a"/><path d="M1072.5 1162.34l-5.32-16.4h10.64zm-3.95-15.4l3.95 12.16 3.95-12.15z" stroke="#3a414a" stroke-width=".05" fill="#3a414a"/><g><use xlink:href="#U" transform="matrix(1,0,0,1,1019.4475308641976,1070.092749783537) translate(0 14.222222222222223)"/></g><path d="M1181 1222.84h35.67a6 6 0 0 0 6-6V557.38" stroke="#3a414a" fill="none"/><path d="M1181 1223.34h-.52l.02-.5-.02-.5h.53z" stroke="#3a414a" stroke-width=".05" fill="#3a414a"/><path d="M1222.67 542.62l4.63 14.26h-9.27z" stroke="#3a414a" fill="#3a414a"/><path d="M1129.18 125.8a10 10 0 0 1 8.82-5.3h106c8.84 0 16 26.86 16 60s-7.16 60-16 60h-106a10 10 0 0 1-8.82-5.3l-26.36-49.4a11.25 11.25 0 0 1 0-10.6z" stroke="#3a414a" fill="#fff"/><g><use xlink:href="#av" transform="matrix(1,0,0,1,1105,125.49996800000008) translate(28.832160493827168 45.27777777777778)"/><use xlink:href="#aw" transform="matrix(1,0,0,1,1105,125.49996800000008) translate(63.33833333333334 45.27777777777778)"/><use xlink:href="#ax" transform="matrix(1,0,0,1,1105,125.49996800000008) translate(88.02969135802469 45.27777777777778)"/><use xlink:href="#ay" transform="matrix(1,0,0,1,1105,125.49996800000008) translate(22.776604938271596 71.94444444444446)"/></g><path d="M832.55 311H566.02l-.88.07-.84.2-.8.33-.73.45-.66.56-.55.67-.45.73-.33.8-.2.84-.07.88v57.46l.07.88.2.84.33.8.45.73.56.66.67.55.73.45.8.33.84.2.88.07h73.08v1h-73.12l-1-.08-1-.24-.93-.4-.87-.52-.78-.66-.66-.78-.53-.87-.38-.94-.24-.98-.08-1v-57.54l.08-1 .24-1 .4-.93.52-.87.66-.78.78-.66.87-.53.94-.38.98-.24 1-.08h266.57zm267.95-130h-14.48l-.88.07-.84.2-.8.33-.73.45-.66.56-.55.67-.45.73-.33.8-.2.84-.07.88v118l-.08 1-.24 1-.4.93-.52.87-.66.78-.78.66-.87.53-.94.38-.98.24-1 .08H946.78v-1h127.2l.88-.07.84-.2.8-.33.73-.45.66-.56.55-.67.45-.73.33-.8.2-.84.07-.88v-118l.08-1 .24-1 .4-.93.52-.87.66-.78.78-.66.87-.53.94-.38.98-.24 1-.08h14.52z" stroke="#3a414a" stroke-width=".05" fill="#3a414a"/><path d="M1101 180.5l.02.5h-.53v-1h.52z" fill="#3a414a"/><path d="M1101.02 180.5l.03.53h-.6v-1.06h.6zm-.5-.47v.94h.48l-.03-.47.03-.47z" stroke="#3a414a" stroke-width=".05" fill="#3a414a"/><path d="M653.87 380l-14.27 4.63v-9.26z" fill="#3a414a"/><path d="M655.48 380l-16.38 5.32v-10.64zm-15.38 3.95l12.15-3.95-12.15-3.95z" stroke="#3a414a" stroke-width=".05" fill="#3a414a"/><g><use xlink:href="#az" transform="matrix(1,0,0,1,832.5543421279333,299.8333013333334) translate(0 14.222222222222223)"/><use xlink:href="#aA" transform="matrix(1,0,0,1,832.5543421279333,299.8333013333334) translate(15.753086419753089 14.222222222222223)"/><use xlink:href="#aB" transform="matrix(1,0,0,1,832.5543421279333,299.8333013333334) translate(60.04938271604939 14.222222222222223)"/></g><path d="M1180.5 429.46h-1v-67.78h1zm0-89.1h-1v-82.98h1z" stroke="#3a414a" stroke-width=".05" fill="#3a414a"/><path d="M1180.5 429.9l-1 .12v-.58h1z" fill="#3a414a"/><path d="M1180.53 429.92l-1.06.13v-.63h1.06zm-1-.45v.52l.94-.13v-.4z" stroke="#3a414a" stroke-width=".05" fill="#3a414a"/><path d="M1184.63 256.88h-9.27l4.64-14.26z" fill="#3a414a"/><path d="M1185.32 257.38h-10.64L1180 241zm-9.27-1h7.9l-3.95-12.14z" stroke="#3a414a" stroke-width=".05" fill="#3a414a"/><g><use xlink:href="#aC" transform="matrix(1,0,0,1,1129.2839506172306,340.3453212596062) translate(0 14.222222222222223)"/></g><path d="M1301 378.22l-.08 1-.24 1-.4.93-.52.87-.66.78-.78.66-.87.53-.94.38-.98.24-1 .08h-62.28l-.88.07-.83.2-.8.33-.74.45-.66.56-.56.67-.45.73-.34.8-.2.84-.08.88v17.6h-1v-17.64l.08-1 .24-1 .4-.93.52-.87.67-.78.77-.66.87-.53.94-.38 1-.24 1-.08h62.28l.88-.07.84-.2.8-.33.73-.45.66-.56.55-.67.45-.73.33-.8.2-.84.07-.88V266.1h1zm-5.48-198.14l1 .24.93.4.87.52.78.66.66.78.53.87.38.94.24.98.08 1v58.3h-1V186.5l-.07-.88-.2-.84-.33-.8-.45-.73-.56-.66-.67-.55-.73-.45-.8-.33-.84-.2-.88-.07H1261v-1h33.52z" stroke="#3a414a" stroke-width=".05" fill="#3a414a"/><path d="M1261 181h-.52l.02-.5-.02-.5h.53z" fill="#3a414a"/><path d="M1261.04 181.03h-.6l.03-.53v-.53h.57zm-.53-1l.03.47-.02.47h.5v-.94z" stroke="#3a414a" stroke-width=".05" fill="#3a414a"/><path d="M1226.22 422.58l-4.63-14.26h9.26z" fill="#3a414a"/><path d="M1226.22 424.2l-5.32-16.38h10.65zm-3.94-15.38l3.94 12.14 3.95-12.14z" stroke="#3a414a" stroke-width=".05" fill="#3a414a"/><g><use xlink:href="#aD" transform="matrix(1,0,0,1,1235.5373371744358,244.76693543144816) translate(0 14.222222222222223)"/><use xlink:href="#aE" transform="matrix(1,0,0,1,1235.5373371744358,244.76693543144816) translate(62.024691358024704 14.222222222222223)"/><use xlink:href="#aF" transform="matrix(1,0,0,1,1235.5373371744358,244.76693543144816) translate(83.65432098765433 14.222222222222223)"/></g><path d="M1368.18 425.8a10 10 0 0 1 8.82-5.3h106c8.84 0 16 26.86 16 60s-7.16 60-16 60h-106a10 10 0 0 1-8.82-5.3l-26.36-49.4a11.25 11.25 0 0 1 0-10.6z" stroke="#3a414a" fill="#fff"/><g><use xlink:href="#aG" transform="matrix(1,0,0,1,1344.0001116486387,425.4999680000001) translate(30.44944444444445 31.52777777777778)"/><use xlink:href="#ad" transform="matrix(1,0,0,1,1344.0001116486387,425.4999680000001) translate(76.12845679012347 31.52777777777778)"/><use xlink:href="#aH" transform="matrix(1,0,0,1,1344.0001116486387,425.4999680000001) translate(39.67783950617284 58.19444444444445)"/><use xlink:href="#ae" transform="matrix(1,0,0,1,1344.0001116486387,425.4999680000001) translate(37.47413580246912 84.86111111111111)"/></g><path d="M1261 480.67h62.62" stroke="#3a414a" fill="none"/><path d="M1261 481.17h-.5v-1h.5z" stroke="#3a414a" stroke-width=".05" fill="#3a414a"/><path d="M1338.4 480.67l-14.28 4.63v-9.27z" stroke="#3a414a" fill="#3a414a"/><path d="M1467 661c17.67 0 32 17.9 32 40s-14.33 40-32 40h-96c-17.67 0-32-17.9-32-40s14.33-40 32-40z" stroke="#3a414a" fill="#fff"/><g><use xlink:href="#aI" transform="matrix(1,0,0,1,1344.0001116486387,665.9999680000003) translate(55.24691358024691 39.65277777777778)"/></g><path d="M1419.4 541.5v102.62" stroke="#3a414a" fill="none"/><path d="M1419.9 541.5h-1v-.5h1z" stroke="#3a414a" stroke-width=".05" fill="#3a414a"/><path d="M1419.4 658.88l-4.62-14.26h9.27z" stroke="#3a414a" fill="#3a414a"/><path d="M501 180.5h102.12" stroke="#3a414a" fill="none"/><path d="M501 181h-.53l.03-.5-.02-.5h.53z" stroke="#3a414a" stroke-width=".05" fill="#3a414a"/><path d="M617.88 180.5l-14.26 4.63v-9.26z" stroke="#3a414a" fill="#3a414a"/><path d="M1175.02 79.58l1 .24.93.4.87.52.78.66.66.78.53.87.38.94.24.98.08 1v17.64h-1v-17.6l-.07-.88-.2-.84-.33-.8-.45-.73-.56-.66-.67-.55-.73-.45-.8-.33-.84-.2-.88-.07h-117.96l-.88.07-.84.2-.8.33-.73.45-.66.56-.55.67-.45.73-.33.8-.2.84-.07.88v198.5l-.08 1-.24 1-.4.93-.52.87-.66.78-.78.66-.87.53-.94.38-.98.24-1 .08h-497.5l-.88.07-.84.2-.8.33-.73.45-.66.56-.55.67-.45.73-.33.8-.2.84-.07.88v77.5l-.08 1-.24 1-.4.93-.52.87-.66.78-.78.66-.87.53-.94.38-.98.24-1 .08H501v-1h33.48l.88-.07.84-.2.8-.33.73-.45.66-.56.55-.67.45-.73.33-.8.2-.84.07-.88v-77.5l.08-1 .24-1 .4-.93.52-.87.66-.78.78-.66.87-.53.94-.38.98-.24 1-.08h497.5l.88-.07.84-.2.8-.33.73-.45.66-.56.55-.67.45-.73.33-.8.2-.84.07-.88V85.98l.08-1 .24-1 .4-.93.52-.87.66-.78.78-.66.87-.53.94-.38.98-.24 1-.08h118.04z" stroke="#3a414a" stroke-width=".05" fill="#3a414a"/><path d="M501 380.5h-.52l.02-.5-.02-.5h.53z" fill="#3a414a"/><path d="M501.04 380.52h-.6l.04-.52-.02-.52h.58zm-.53-1l.02.48v.48h.47v-.96z" stroke="#3a414a" stroke-width=".05" fill="#3a414a"/><path d="M1180 118.38l-4.63-14.26h9.27z" fill="#3a414a"/><path d="M1180 120l-5.32-16.38h10.64zm-3.95-15.38l3.95 12.14 3.95-12.14z" stroke="#3a414a" stroke-width=".05" fill="#3a414a"/><defs><path fill="#3a414a" d="M185-189c-5-48-123-54-124 2 14 75 158 14 163 119 3 78-121 87-175 55-17-10-28-26-33-46l33-7c5 56 141 63 141-1 0-78-155-14-162-118-5-82 145-84 179-34 5 7 8 16 11 25" id="aJ"/><path fill="#3a414a" d="M59-47c-2 24 18 29 38 22v24C64 9 27 4 27-40v-127H5v-23h24l9-43h21v43h35v23H59v120" id="aK"/><path fill="#3a414a" d="M141-36C126-15 110 5 73 4 37 3 15-17 15-53c-1-64 63-63 125-63 3-35-9-54-41-54-24 1-41 7-42 31l-33-3c5-37 33-52 76-52 45 0 72 20 72 64v82c-1 20 7 32 28 27v20c-31 9-61-2-59-35zM48-53c0 20 12 33 32 33 41-3 63-29 60-74-43 2-92-5-92 41" id="aL"/><path fill="#3a414a" d="M114-163C36-179 61-72 57 0H25l-1-190h30c1 12-1 29 2 39 6-27 23-49 58-41v29" id="aM"/><g id="a"><use transform="matrix(0.06172839506172839,0,0,0.06172839506172839,0,0)" xlink:href="#aJ"/><use transform="matrix(0.06172839506172839,0,0,0.06172839506172839,14.814814814814813,0)" xlink:href="#aK"/><use transform="matrix(0.06172839506172839,0,0,0.06172839506172839,20.98765432098765,0)" xlink:href="#aL"/><use transform="matrix(0.06172839506172839,0,0,0.06172839506172839,33.33333333333333,0)" xlink:href="#aM"/><use transform="matrix(0.06172839506172839,0,0,0.06172839506172839,40.679012345679006,0)" xlink:href="#aK"/></g><path fill="#3a414a" d="M275 0h-61l-44-196L126 0H64L0-248h53L97-49l45-199h58l43 199 44-199h52" id="aN"/><path fill="#3a414a" d="M114-157C55-157 80-60 75 0H25v-261h50l-1 109c12-26 28-41 61-42 86-1 58 113 63 194h-50c-7-57 23-157-34-157" id="aO"/><path fill="#3a414a" d="M110-194c64 0 96 36 96 99 0 64-35 99-97 99-61 0-95-36-95-99 0-62 34-99 96-99zm-1 164c35 0 45-28 45-65 0-40-10-65-43-65-34 0-45 26-45 65 0 36 10 65 43 65" id="aP"/><g id="b"><use transform="matrix(0.08641975308641973,0,0,0.08641975308641973,0,0)" xlink:href="#aN"/><use transform="matrix(0.08641975308641973,0,0,0.08641975308641973,29.29629629629629,0)" xlink:href="#aO"/><use transform="matrix(0.08641975308641973,0,0,0.08641975308641973,48.222222222222214,0)" xlink:href="#aP"/></g><path fill="#3a414a" d="M133-34C117-15 103 5 69 4 32 3 11-16 11-54c-1-60 55-63 116-61 1-26-3-47-28-47-18 1-26 9-28 27l-52-2c7-38 36-58 82-57s74 22 75 68l1 82c-1 14 12 18 25 15v27c-30 8-71 5-69-32zm-48 3c29 0 43-24 42-57-32 0-66-3-65 30 0 17 8 27 23 27" id="aQ"/><path fill="#3a414a" d="M135-194c87-1 58 113 63 194h-50c-7-57 23-157-34-157-59 0-34 97-39 157H25l-1-190h47c2 12-1 28 3 38 12-26 28-41 61-42" id="aR"/><path fill="#3a414a" d="M115-3C79 11 28 4 28-45v-112H4v-33h27l15-45h31v45h36v33H77v99c-1 23 16 31 38 25v30" id="aS"/><path fill="#3a414a" d="M137-138c1-29-70-34-71-4 15 46 118 7 119 86 1 83-164 76-172 9l43-7c4 19 20 25 44 25 33 8 57-30 24-41C81-84 22-81 20-136c-2-80 154-74 161-7" id="aT"/><g id="c"><use transform="matrix(0.08641975308641973,0,0,0.08641975308641973,0,0)" xlink:href="#aN"/><use transform="matrix(0.08641975308641973,0,0,0.08641975308641973,28.172839506172835,0)" xlink:href="#aQ"/><use transform="matrix(0.08641975308641973,0,0,0.08641975308641973,45.45679012345678,0)" xlink:href="#aR"/><use transform="matrix(0.08641975308641973,0,0,0.08641975308641973,64.38271604938271,0)" xlink:href="#aS"/><use transform="matrix(0.08641975308641973,0,0,0.08641975308641973,74.66666666666666,0)" xlink:href="#aT"/></g><path fill="#3a414a" d="M136-208V0H84v-208H4v-40h212v40h-80" id="aU"/><g id="d"><use transform="matrix(0.08641975308641973,0,0,0.08641975308641973,0,0)" xlink:href="#aU"/><use transform="matrix(0.08641975308641973,0,0,0.08641975308641973,16.592592592592588,0)" xlink:href="#aP"/></g><path fill="#3a414a" d="M182-130c37 4 62 22 62 59C244 23 116-4 24 0v-248c84 5 203-23 205 63 0 31-19 50-47 55zM76-148c40-3 101 13 101-30 0-44-60-28-101-31v61zm0 110c48-3 116 14 116-37 0-48-69-32-116-35v72" id="aV"/><path fill="#3a414a" d="M185-48c-13 30-37 53-82 52C43 2 14-33 14-96s30-98 90-98c62 0 83 45 84 108H66c0 31 8 55 39 56 18 0 30-7 34-22zm-45-69c5-46-57-63-70-21-2 6-4 13-4 21h74" id="aW"/><g id="e"><use transform="matrix(0.08641975308641973,0,0,0.08641975308641973,0,0)" xlink:href="#aV"/><use transform="matrix(0.08641975308641973,0,0,0.08641975308641973,22.38271604938271,0)" xlink:href="#aW"/></g><use transform="matrix(0.08641975308641973,0,0,0.08641975308641973,0,0)" xlink:href="#aQ" id="f"/><path fill="#3a414a" d="M230 0l2-204L168 0h-37L68-204 70 0H24v-248h70l56 185 57-185h69V0h-46" id="aX"/><path fill="#3a414a" d="M25-224v-37h50v37H25zM25 0v-190h50V0H25" id="aY"/><path fill="#3a414a" d="M25 0v-261h50V0H25" id="aZ"/><path fill="#3a414a" d="M135-150c-39-12-60 13-60 57V0H25l-1-190h47c2 13-1 29 3 40 6-28 27-53 61-41v41" id="ba"/><g id="g"><use transform="matrix(0.08641975308641973,0,0,0.08641975308641973,0,0)" xlink:href="#aX"/><use transform="matrix(0.08641975308641973,0,0,0.08641975308641973,25.8395061728395,0)" xlink:href="#aY"/><use transform="matrix(0.08641975308641973,0,0,0.08641975308641973,34.481481481481474,0)" xlink:href="#aZ"/><use transform="matrix(0.08641975308641973,0,0,0.08641975308641973,43.12345679012345,0)" xlink:href="#aZ"/><use transform="matrix(0.08641975308641973,0,0,0.08641975308641973,51.76543209876542,0)" xlink:href="#aY"/><use transform="matrix(0.08641975308641973,0,0,0.08641975308641973,60.4074074074074,0)" xlink:href="#aP"/><use transform="matrix(0.08641975308641973,0,0,0.08641975308641973,79.33333333333331,0)" xlink:href="#aR"/><use transform="matrix(0.08641975308641973,0,0,0.08641975308641973,98.25925925925924,0)" xlink:href="#aQ"/><use transform="matrix(0.08641975308641973,0,0,0.08641975308641973,115.54320987654319,0)" xlink:href="#aY"/><use transform="matrix(0.08641975308641973,0,0,0.08641975308641973,124.18518518518516,0)" xlink:href="#ba"/><use transform="matrix(0.08641975308641973,0,0,0.08641975308641973,136.28395061728392,0)" xlink:href="#aW"/></g><path fill="#3a414a" d="M195 0l-88-114-31 24V0H24v-248h52v113l112-113h60L142-143 257 0h-62" id="bb"/><path fill="#3a414a" d="M88-194c31-1 46 15 58 34l-1-101h50l1 261h-48c-2-10 0-23-3-31C134-8 116 4 84 4 32 4 16-41 15-95c0-56 19-97 73-99zm17 164c33 0 40-30 41-66 1-37-9-64-41-64s-38 30-39 65c0 43 13 65 39 65" id="bc"/><g id="h"><use transform="matrix(0.08641975308641973,0,0,0.08641975308641973,0,0)" xlink:href="#bb"/><use transform="matrix(0.08641975308641973,0,0,0.08641975308641973,22.38271604938271,0)" xlink:href="#aY"/><use transform="matrix(0.08641975308641973,0,0,0.08641975308641973,31.024691358024686,0)" xlink:href="#aR"/><use transform="matrix(0.08641975308641973,0,0,0.08641975308641973,49.950617283950606,0)" xlink:href="#bc"/></g><path fill="#3a414a" d="M121-226c-27-7-43 5-38 36h38v33H83V0H34v-157H6v-33h28c-9-59 32-81 87-68v32" id="bd"/><path fill="#3a414a" d="M24 0v-54h51V0H24" id="be"/><g id="i"><use transform="matrix(0.08641975308641973,0,0,0.08641975308641973,0,0)" xlink:href="#aP"/><use transform="matrix(0.08641975308641973,0,0,0.08641975308641973,18.92592592592592,0)" xlink:href="#bd"/><use transform="matrix(0.08641975308641973,0,0,0.08641975308641973,29.20987654320987,0)" xlink:href="#be"/><use transform="matrix(0.08641975308641973,0,0,0.08641975308641973,37.85185185185184,0)" xlink:href="#be"/><use transform="matrix(0.08641975308641973,0,0,0.08641975308641973,46.493827160493815,0)" xlink:href="#be"/></g><path fill="#3a414a" d="M33 0v-248h34V0H33" id="bf"/><path fill="#3a414a" d="M117-194c89-4 53 116 60 194h-32v-121c0-31-8-49-39-48C34-167 62-67 57 0H25l-1-190h30c1 10-1 24 2 32 11-22 29-35 61-36" id="bg"/><path fill="#3a414a" d="M100-194c62-1 85 37 85 99 1 63-27 99-86 99S16-35 15-95c0-66 28-99 85-99zM99-20c44 1 53-31 53-75 0-43-8-75-51-75s-53 32-53 75 10 74 51 75" id="bh"/><g id="j"><use transform="matrix(0.06172839506172839,0,0,0.06172839506172839,0,0)" xlink:href="#bf"/><use transform="matrix(0.06172839506172839,0,0,0.06172839506172839,6.172839506172839,0)" xlink:href="#bg"/><use transform="matrix(0.06172839506172839,0,0,0.06172839506172839,18.51851851851852,0)" xlink:href="#aK"/><use transform="matrix(0.06172839506172839,0,0,0.06172839506172839,24.691358024691358,0)" xlink:href="#aM"/><use transform="matrix(0.06172839506172839,0,0,0.06172839506172839,32.03703703703704,0)" xlink:href="#bh"/></g><path fill="#3a414a" d="M96-169c-40 0-48 33-48 73s9 75 48 75c24 0 41-14 43-38l32 2c-6 37-31 61-74 61-59 0-76-41-82-99-10-93 101-131 147-64 4 7 5 14 7 22l-32 3c-4-21-16-35-41-35" id="bi"/><path fill="#3a414a" d="M100-194c63 0 86 42 84 106H49c0 40 14 67 53 68 26 1 43-12 49-29l28 8c-11 28-37 45-77 45C44 4 14-33 15-96c1-61 26-98 85-98zm52 81c6-60-76-77-97-28-3 7-6 17-6 28h103" id="bj"/><g id="k"><use transform="matrix(0.06172839506172839,0,0,0.06172839506172839,0,0)" xlink:href="#aJ"/><use transform="matrix(0.06172839506172839,0,0,0.06172839506172839,14.814814814814813,0)" xlink:href="#bi"/><use transform="matrix(0.06172839506172839,0,0,0.06172839506172839,25.925925925925924,0)" xlink:href="#aM"/><use transform="matrix(0.06172839506172839,0,0,0.06172839506172839,33.2716049382716,0)" xlink:href="#bj"/><use transform="matrix(0.06172839506172839,0,0,0.06172839506172839,45.61728395061728,0)" xlink:href="#bj"/><use transform="matrix(0.06172839506172839,0,0,0.06172839506172839,57.962962962962955,0)" xlink:href="#bg"/></g><path fill="#3a414a" d="M115-194c55 1 70 41 70 98S169 2 115 4C84 4 66-9 55-30l1 105H24l-1-265h31l2 30c10-21 28-34 59-34zm-8 174c40 0 45-34 45-75s-6-73-45-74c-42 0-51 32-51 76 0 43 10 73 51 73" id="bk"/><path fill="#3a414a" d="M84 4C-5 8 30-112 23-190h32v120c0 31 7 50 39 49 72-2 45-101 50-169h31l1 190h-30c-1-10 1-25-2-33-11 22-28 36-60 37" id="bl"/><g id="l"><use transform="matrix(0.06172839506172839,0,0,0.06172839506172839,0,0)" xlink:href="#bf"/><use transform="matrix(0.06172839506172839,0,0,0.06172839506172839,6.172839506172839,0)" xlink:href="#bg"/><use transform="matrix(0.06172839506172839,0,0,0.06172839506172839,18.51851851851852,0)" xlink:href="#bk"/><use transform="matrix(0.06172839506172839,0,0,0.06172839506172839,30.864197530864196,0)" xlink:href="#bl"/><use transform="matrix(0.06172839506172839,0,0,0.06172839506172839,43.20987654320987,0)" xlink:href="#aK"/></g><path fill="#3a414a" d="M108 0H70L1-190h34L89-25l56-165h34" id="bm"/><path fill="#3a414a" d="M24 0v-261h32V0H24" id="bn"/><path fill="#3a414a" d="M24-231v-30h32v30H24zM24 0v-190h32V0H24" id="bo"/><path fill="#3a414a" d="M85-194c31 0 48 13 60 33l-1-100h32l1 261h-30c-2-10 0-23-3-31C134-8 116 4 85 4 32 4 16-35 15-94c0-66 23-100 70-100zm9 24c-40 0-46 34-46 75 0 40 6 74 45 74 42 0 51-32 51-76 0-42-9-74-50-73" id="bp"/><path fill="#3a414a" d="M103-251c84 0 111 97 45 133-19 10-37 24-39 52H78c0-63 77-55 77-114 0-30-21-42-52-43-32 0-53 17-56 46l-32-2c7-45 34-72 88-72zM77 0v-35h34V0H77" id="bq"/><g id="m"><use transform="matrix(0.06172839506172839,0,0,0.06172839506172839,0,0)" xlink:href="#bm"/><use transform="matrix(0.06172839506172839,0,0,0.06172839506172839,11.11111111111111,0)" xlink:href="#aL"/><use transform="matrix(0.06172839506172839,0,0,0.06172839506172839,23.45679012345679,0)" xlink:href="#bn"/><use transform="matrix(0.06172839506172839,0,0,0.06172839506172839,28.333333333333336,0)" xlink:href="#bo"/><use transform="matrix(0.06172839506172839,0,0,0.06172839506172839,33.20987654320988,0)" xlink:href="#bp"/><use transform="matrix(0.06172839506172839,0,0,0.06172839506172839,45.55555555555556,0)" xlink:href="#bq"/></g><g id="n"><use transform="matrix(0.06172839506172839,0,0,0.06172839506172839,0,0)" xlink:href="#bf"/><use transform="matrix(0.06172839506172839,0,0,0.06172839506172839,6.172839506172839,0)" xlink:href="#bg"/><use transform="matrix(0.06172839506172839,0,0,0.06172839506172839,18.51851851851852,0)" xlink:href="#bk"/><use transform="matrix(0.06172839506172839,0,0,0.06172839506172839,30.864197530864196,0)" xlink:href="#bl"/><use transform="matrix(0.06172839506172839,0,0,0.06172839506172839,43.20987654320987,0)" xlink:href="#aK"/></g><path fill="#3a414a" d="M30-248c87 1 191-15 191 75 0 78-77 80-158 76V0H30v-248zm33 125c57 0 124 11 124-50 0-59-68-47-124-48v98" id="br"/><path fill="#3a414a" d="M179-190L93 31C79 59 56 82 12 73V49c39 6 53-20 64-50L1-190h34L92-34l54-156h33" id="bs"/><path fill="#3a414a" d="M47-170H22l-4-78h33" id="bt"/><path fill="#3a414a" d="M135-143c-3-34-86-38-87 0 15 53 115 12 119 90S17 21 10-45l28-5c4 36 97 45 98 0-10-56-113-15-118-90-4-57 82-63 122-42 12 7 21 19 24 35" id="bu"/><g id="o"><use transform="matrix(0.06172839506172839,0,0,0.06172839506172839,0,0)" xlink:href="#br"/><use transform="matrix(0.06172839506172839,0,0,0.06172839506172839,14.814814814814813,0)" xlink:href="#bn"/><use transform="matrix(0.06172839506172839,0,0,0.06172839506172839,19.691358024691354,0)" xlink:href="#aL"/><use transform="matrix(0.06172839506172839,0,0,0.06172839506172839,32.03703703703703,0)" xlink:href="#bs"/><use transform="matrix(0.06172839506172839,0,0,0.06172839506172839,43.14814814814814,0)" xlink:href="#bj"/><use transform="matrix(0.06172839506172839,0,0,0.06172839506172839,55.493827160493815,0)" xlink:href="#aM"/><use transform="matrix(0.06172839506172839,0,0,0.06172839506172839,62.83950617283949,0)" xlink:href="#bt"/><use transform="matrix(0.06172839506172839,0,0,0.06172839506172839,67.03703703703702,0)" xlink:href="#bu"/></g><path fill="#3a414a" d="M210-169c-67 3-38 105-44 169h-31v-121c0-29-5-50-35-48C34-165 62-65 56 0H25l-1-190h30c1 10-1 24 2 32 10-44 99-50 107 0 11-21 27-35 58-36 85-2 47 119 55 194h-31v-121c0-29-5-49-35-48" id="bv"/><g id="p"><use transform="matrix(0.06172839506172839,0,0,0.06172839506172839,0,0)" xlink:href="#bg"/><use transform="matrix(0.06172839506172839,0,0,0.06172839506172839,12.345679012345679,0)" xlink:href="#aL"/><use transform="matrix(0.06172839506172839,0,0,0.06172839506172839,24.691358024691358,0)" xlink:href="#bv"/><use transform="matrix(0.06172839506172839,0,0,0.06172839506172839,43.148148148148145,0)" xlink:href="#bj"/></g><path fill="#3a414a" d="M240 0l2-218c-23 76-54 145-80 218h-23L58-218 59 0H30v-248h44l77 211c21-75 51-140 76-211h43V0h-30" id="bw"/><g id="q"><use transform="matrix(0.06172839506172839,0,0,0.06172839506172839,0,0)" xlink:href="#bw"/><use transform="matrix(0.06172839506172839,0,0,0.06172839506172839,18.456790123456788,0)" xlink:href="#bj"/><use transform="matrix(0.06172839506172839,0,0,0.06172839506172839,30.80246913580247,0)" xlink:href="#bg"/><use transform="matrix(0.06172839506172839,0,0,0.06172839506172839,43.148148148148145,0)" xlink:href="#bl"/></g><path fill="#333" d="M146-102V0H94v-102L6-248h54l60 105 60-105h54" id="bx"/><path fill="#333" d="M185-48c-13 30-37 53-82 52C43 2 14-33 14-96s30-98 90-98c62 0 83 45 84 108H66c0 31 8 55 39 56 18 0 30-7 34-22zm-45-69c5-46-57-63-70-21-2 6-4 13-4 21h74" id="by"/><path fill="#333" d="M137-138c1-29-70-34-71-4 15 46 118 7 119 86 1 83-164 76-172 9l43-7c4 19 20 25 44 25 33 8 57-30 24-41C81-84 22-81 20-136c-2-80 154-74 161-7" id="bz"/><g id="r"><use transform="matrix(0.04938271604938272,0,0,0.04938271604938272,0,0)" xlink:href="#bx"/><use transform="matrix(0.04938271604938272,0,0,0.04938271604938272,10.864197530864198,0)" xlink:href="#by"/><use transform="matrix(0.04938271604938272,0,0,0.04938271604938272,20.74074074074074,0)" xlink:href="#bz"/></g><path fill="#333" d="M175 0L67-191c6 58 2 128 3 191H24v-248h59L193-55c-6-58-2-129-3-193h46V0h-61" id="bA"/><path fill="#333" d="M110-194c64 0 96 36 96 99 0 64-35 99-97 99-61 0-95-36-95-99 0-62 34-99 96-99zm-1 164c35 0 45-28 45-65 0-40-10-65-43-65-34 0-45 26-45 65 0 36 10 65 43 65" id="bB"/><g id="s"><use transform="matrix(0.04938271604938272,0,0,0.04938271604938272,0,0)" xlink:href="#bA"/><use transform="matrix(0.04938271604938272,0,0,0.04938271604938272,12.790123456790125,0)" xlink:href="#bB"/></g><g id="t"><use transform="matrix(0.06172839506172839,0,0,0.06172839506172839,0,0)" xlink:href="#aJ"/><use transform="matrix(0.06172839506172839,0,0,0.06172839506172839,14.814814814814813,0)" xlink:href="#aK"/><use transform="matrix(0.06172839506172839,0,0,0.06172839506172839,20.98765432098765,0)" xlink:href="#aL"/><use transform="matrix(0.06172839506172839,0,0,0.06172839506172839,33.33333333333333,0)" xlink:href="#aM"/><use transform="matrix(0.06172839506172839,0,0,0.06172839506172839,40.679012345679006,0)" xlink:href="#aK"/></g><path fill="#3a414a" d="M140-251c81 0 123 46 123 126C263-53 228-8 163 1c7 30 30 48 69 40v23c-55 16-95-15-103-61C56-3 17-48 17-125c0-80 42-126 123-126zm0 227c63 0 89-41 89-101s-29-99-89-99c-61 0-89 39-89 99S79-25 140-24" id="bC"/><path fill="#3a414a" d="M9 0v-24l116-142H16v-24h144v24L44-24h123V0H9" id="bD"/><g id="u"><use transform="matrix(0.06172839506172839,0,0,0.06172839506172839,0,0)" xlink:href="#bC"/><use transform="matrix(0.06172839506172839,0,0,0.06172839506172839,17.28395061728395,0)" xlink:href="#bl"/><use transform="matrix(0.06172839506172839,0,0,0.06172839506172839,29.629629629629626,0)" xlink:href="#bo"/><use transform="matrix(0.06172839506172839,0,0,0.06172839506172839,34.50617283950617,0)" xlink:href="#bD"/></g><g id="v"><use transform="matrix(0.06172839506172839,0,0,0.06172839506172839,0,0)" xlink:href="#bC"/><use transform="matrix(0.06172839506172839,0,0,0.06172839506172839,17.28395061728395,0)" xlink:href="#bl"/><use transform="matrix(0.06172839506172839,0,0,0.06172839506172839,29.629629629629626,0)" xlink:href="#bj"/><use transform="matrix(0.06172839506172839,0,0,0.06172839506172839,41.9753086419753,0)" xlink:href="#bu"/><use transform="matrix(0.06172839506172839,0,0,0.06172839506172839,53.08641975308642,0)" xlink:href="#aK"/><use transform="matrix(0.06172839506172839,0,0,0.06172839506172839,59.25925925925926,0)" xlink:href="#bo"/><use transform="matrix(0.06172839506172839,0,0,0.06172839506172839,64.1358024691358,0)" xlink:href="#bh"/><use transform="matrix(0.06172839506172839,0,0,0.06172839506172839,76.48148148148148,0)" xlink:href="#bg"/><use transform="matrix(0.06172839506172839,0,0,0.06172839506172839,88.82716049382717,0)" xlink:href="#bu"/></g><g id="w"><use transform="matrix(0.06172839506172839,0,0,0.06172839506172839,0,0)" xlink:href="#bo"/><use transform="matrix(0.06172839506172839,0,0,0.06172839506172839,4.876543209876543,0)" xlink:href="#bg"/><use transform="matrix(0.06172839506172839,0,0,0.06172839506172839,17.22222222222222,0)" xlink:href="#bo"/><use transform="matrix(0.06172839506172839,0,0,0.06172839506172839,22.098765432098766,0)" xlink:href="#aK"/><use transform="matrix(0.06172839506172839,0,0,0.06172839506172839,28.271604938271604,0)" xlink:href="#bo"/><use transform="matrix(0.06172839506172839,0,0,0.06172839506172839,33.148148148148145,0)" xlink:href="#aL"/><use transform="matrix(0.06172839506172839,0,0,0.06172839506172839,45.49382716049382,0)" xlink:href="#bn"/><use transform="matrix(0.06172839506172839,0,0,0.06172839506172839,50.37037037037037,0)" xlink:href="#bo"/><use transform="matrix(0.06172839506172839,0,0,0.06172839506172839,55.24691358024691,0)" xlink:href="#bD"/><use transform="matrix(0.06172839506172839,0,0,0.06172839506172839,66.35802469135803,0)" xlink:href="#aL"/><use transform="matrix(0.06172839506172839,0,0,0.06172839506172839,78.70370370370371,0)" xlink:href="#aK"/><use transform="matrix(0.06172839506172839,0,0,0.06172839506172839,84.87654320987654,0)" xlink:href="#bo"/><use transform="matrix(0.06172839506172839,0,0,0.06172839506172839,89.75308641975309,0)" xlink:href="#bh"/><use transform="matrix(0.06172839506172839,0,0,0.06172839506172839,102.09876543209877,0)" xlink:href="#bg"/></g><path fill="#333" d="M169-182c-1-43-94-46-97-3 18 66 151 10 154 114 3 95-165 93-204 36-6-8-10-19-12-30l50-8c3 46 112 56 116 5-17-69-150-10-154-114-4-87 153-88 188-35 5 8 8 18 10 28" id="bE"/><path fill="#333" d="M115-3C79 11 28 4 28-45v-112H4v-33h27l15-45h31v45h36v33H77v99c-1 23 16 31 38 25v30" id="bF"/><path fill="#333" d="M133-34C117-15 103 5 69 4 32 3 11-16 11-54c-1-60 55-63 116-61 1-26-3-47-28-47-18 1-26 9-28 27l-52-2c7-38 36-58 82-57s74 22 75 68l1 82c-1 14 12 18 25 15v27c-30 8-71 5-69-32zm-48 3c29 0 43-24 42-57-32 0-66-3-65 30 0 17 8 27 23 27" id="bG"/><path fill="#333" d="M135-150c-39-12-60 13-60 57V0H25l-1-190h47c2 13-1 29 3 40 6-28 27-53 61-41v41" id="bH"/><g id="x"><use transform="matrix(0.04938271604938272,0,0,0.04938271604938272,0,0)" xlink:href="#bE"/><use transform="matrix(0.04938271604938272,0,0,0.04938271604938272,11.851851851851853,0)" xlink:href="#bF"/><use transform="matrix(0.04938271604938272,0,0,0.04938271604938272,17.728395061728396,0)" xlink:href="#bG"/><use transform="matrix(0.04938271604938272,0,0,0.04938271604938272,27.60493827160494,0)" xlink:href="#bH"/><use transform="matrix(0.04938271604938272,0,0,0.04938271604938272,34.51851851851852,0)" xlink:href="#bF"/></g><path fill="#333" d="M140-251c80 0 125 45 125 126 0 70-33 111-92 124 6 28 34 38 68 31l-1 36C177 83 129 55 120 2 51-6 15-50 15-125c0-81 44-126 125-126zm-1 214c52 0 73-35 73-88 0-50-21-86-72-86-52 0-73 35-73 86s22 88 72 88" id="bI"/><path fill="#333" d="M85 4C-2 5 27-109 22-190h50c7 57-23 150 33 157 60-5 35-97 40-157h50l1 190h-47c-2-12 1-28-3-38-12 25-28 42-61 42" id="bJ"/><path fill="#333" d="M25-224v-37h50v37H25zM25 0v-190h50V0H25" id="bK"/><path fill="#333" d="M12 0v-35l95-120H19v-35h142v35L67-36h103V0H12" id="bL"/><g id="y"><use transform="matrix(0.04938271604938272,0,0,0.04938271604938272,0,0)" xlink:href="#bI"/><use transform="matrix(0.04938271604938272,0,0,0.04938271604938272,13.827160493827162,0)" xlink:href="#bJ"/><use transform="matrix(0.04938271604938272,0,0,0.04938271604938272,24.641975308641975,0)" xlink:href="#bK"/><use transform="matrix(0.04938271604938272,0,0,0.04938271604938272,29.58024691358025,0)" xlink:href="#bL"/></g><path fill="#3a414a" d="M30 0v-248h33v221h125V0H30" id="bM"/><g id="z"><use transform="matrix(0.06172839506172839,0,0,0.06172839506172839,0,0)" xlink:href="#bM"/><use transform="matrix(0.06172839506172839,0,0,0.06172839506172839,12.345679012345679,0)" xlink:href="#bh"/><use transform="matrix(0.06172839506172839,0,0,0.06172839506172839,24.691358024691358,0)" xlink:href="#aL"/><use transform="matrix(0.06172839506172839,0,0,0.06172839506172839,37.03703703703704,0)" xlink:href="#bp"/></g><g id="A"><use transform="matrix(0.06172839506172839,0,0,0.06172839506172839,0,0)" xlink:href="#bp"/><use transform="matrix(0.06172839506172839,0,0,0.06172839506172839,12.345679012345679,0)" xlink:href="#aL"/><use transform="matrix(0.06172839506172839,0,0,0.06172839506172839,24.691358024691358,0)" xlink:href="#aK"/><use transform="matrix(0.06172839506172839,0,0,0.06172839506172839,30.864197530864196,0)" xlink:href="#aL"/></g><path fill="#3a414a" d="M101-234c-31-9-42 10-38 44h38v23H63V0H32v-167H5v-23h27c-7-52 17-82 69-68v24" id="bN"/><g id="B"><use transform="matrix(0.06172839506172839,0,0,0.06172839506172839,0,0)" xlink:href="#bN"/><use transform="matrix(0.06172839506172839,0,0,0.06172839506172839,6.172839506172839,0)" xlink:href="#aM"/><use transform="matrix(0.06172839506172839,0,0,0.06172839506172839,13.518518518518519,0)" xlink:href="#bh"/><use transform="matrix(0.06172839506172839,0,0,0.06172839506172839,25.864197530864196,0)" xlink:href="#bv"/></g><path fill="#3a414a" d="M153-248C145-148 188 4 80 4 36 3 13-21 6-62l32-5c4 25 16 42 43 43 27 0 39-20 39-49v-147H72v-28h81" id="bO"/><path fill="#3a414a" d="M140-251c81 0 123 46 123 126C263-46 219 4 140 4 59 4 17-45 17-125s42-126 123-126zm0 227c63 0 89-41 89-101s-29-99-89-99c-61 0-89 39-89 99S79-25 140-24" id="bP"/><path fill="#3a414a" d="M190 0L58-211 59 0H30v-248h39L202-35l-2-213h31V0h-41" id="bQ"/><g id="C"><use transform="matrix(0.06172839506172839,0,0,0.06172839506172839,0,0)" xlink:href="#bO"/><use transform="matrix(0.06172839506172839,0,0,0.06172839506172839,11.11111111111111,0)" xlink:href="#aJ"/><use transform="matrix(0.06172839506172839,0,0,0.06172839506172839,25.925925925925924,0)" xlink:href="#bP"/><use transform="matrix(0.06172839506172839,0,0,0.06172839506172839,43.20987654320987,0)" xlink:href="#bQ"/></g><g id="D"><use transform="matrix(0.06172839506172839,0,0,0.06172839506172839,0,0)" xlink:href="#bN"/><use transform="matrix(0.06172839506172839,0,0,0.06172839506172839,6.172839506172839,0)" xlink:href="#bo"/><use transform="matrix(0.06172839506172839,0,0,0.06172839506172839,11.049382716049383,0)" xlink:href="#bn"/><use transform="matrix(0.06172839506172839,0,0,0.06172839506172839,15.925925925925926,0)" xlink:href="#bj"/><use transform="matrix(0.06172839506172839,0,0,0.06172839506172839,28.271604938271604,0)" xlink:href="#bu"/></g><path fill="#3a414a" d="M30-248c118-7 216 8 213 122C240-48 200 0 122 0H30v-248zM63-27c89 8 146-16 146-99s-60-101-146-95v194" id="bR"/><g id="E"><use transform="matrix(0.06172839506172839,0,0,0.06172839506172839,0,0)" xlink:href="#bR"/><use transform="matrix(0.06172839506172839,0,0,0.06172839506172839,15.987654320987653,0)" xlink:href="#bo"/><use transform="matrix(0.06172839506172839,0,0,0.06172839506172839,20.864197530864196,0)" xlink:href="#bu"/><use transform="matrix(0.06172839506172839,0,0,0.06172839506172839,31.975308641975307,0)" xlink:href="#bk"/><use transform="matrix(0.06172839506172839,0,0,0.06172839506172839,44.32098765432099,0)" xlink:href="#bn"/><use transform="matrix(0.06172839506172839,0,0,0.06172839506172839,49.19753086419753,0)" xlink:href="#aL"/><use transform="matrix(0.06172839506172839,0,0,0.06172839506172839,61.54320987654321,0)" xlink:href="#bs"/></g><use transform="matrix(0.06172839506172839,0,0,0.06172839506172839,0,0)" xlink:href="#aL" id="F"/><g id="G"><use transform="matrix(0.06172839506172839,0,0,0.06172839506172839,0,0)" xlink:href="#bC"/><use transform="matrix(0.06172839506172839,0,0,0.06172839506172839,17.28395061728395,0)" xlink:href="#bl"/><use transform="matrix(0.06172839506172839,0,0,0.06172839506172839,29.629629629629626,0)" xlink:href="#bj"/><use transform="matrix(0.06172839506172839,0,0,0.06172839506172839,41.9753086419753,0)" xlink:href="#bu"/><use transform="matrix(0.06172839506172839,0,0,0.06172839506172839,53.08641975308642,0)" xlink:href="#aK"/><use transform="matrix(0.06172839506172839,0,0,0.06172839506172839,59.25925925925926,0)" xlink:href="#bo"/><use transform="matrix(0.06172839506172839,0,0,0.06172839506172839,64.1358024691358,0)" xlink:href="#bh"/><use transform="matrix(0.06172839506172839,0,0,0.06172839506172839,76.48148148148148,0)" xlink:href="#bg"/></g><path fill="#3a414a" d="M232-93c-1 65-40 97-104 97C67 4 28-28 28-90v-158h33c8 89-33 224 67 224 102 0 64-133 71-224h33v155" id="bS"/><g id="H"><use transform="matrix(0.06172839506172839,0,0,0.06172839506172839,0,0)" xlink:href="#bS"/><use transform="matrix(0.06172839506172839,0,0,0.06172839506172839,15.987654320987653,0)" xlink:href="#bu"/><use transform="matrix(0.06172839506172839,0,0,0.06172839506172839,27.098765432098766,0)" xlink:href="#bj"/><use transform="matrix(0.06172839506172839,0,0,0.06172839506172839,39.44444444444444,0)" xlink:href="#aM"/></g><path fill="#3a414a" d="M205 0l-28-72H64L36 0H1l101-248h38L239 0h-34zm-38-99l-47-123c-12 45-31 82-46 123h93" id="bT"/><path fill="#3a414a" d="M206 0h-36l-40-164L89 0H53L-1-190h32L70-26l43-164h34l41 164 42-164h31" id="bU"/><g id="I"><use transform="matrix(0.06172839506172839,0,0,0.06172839506172839,0,0)" xlink:href="#bT"/><use transform="matrix(0.06172839506172839,0,0,0.06172839506172839,14.814814814814813,0)" xlink:href="#bg"/><use transform="matrix(0.06172839506172839,0,0,0.06172839506172839,27.160493827160494,0)" xlink:href="#bu"/><use transform="matrix(0.06172839506172839,0,0,0.06172839506172839,38.27160493827161,0)" xlink:href="#bU"/><use transform="matrix(0.06172839506172839,0,0,0.06172839506172839,54.25925925925926,0)" xlink:href="#bj"/><use transform="matrix(0.06172839506172839,0,0,0.06172839506172839,66.60493827160494,0)" xlink:href="#aM"/></g><g id="J"><use transform="matrix(0.06172839506172839,0,0,0.06172839506172839,0,0)" xlink:href="#bf"/><use transform="matrix(0.06172839506172839,0,0,0.06172839506172839,6.172839506172839,0)" xlink:href="#bg"/><use transform="matrix(0.06172839506172839,0,0,0.06172839506172839,18.51851851851852,0)" xlink:href="#bk"/><use transform="matrix(0.06172839506172839,0,0,0.06172839506172839,30.864197530864196,0)" xlink:href="#bl"/><use transform="matrix(0.06172839506172839,0,0,0.06172839506172839,43.20987654320987,0)" xlink:href="#aK"/></g><path fill="#3a414a" d="M212-179c-10-28-35-45-73-45-59 0-87 40-87 99 0 60 29 101 89 101 43 0 62-24 78-52l27 14C228-24 195 4 139 4 59 4 22-46 18-125c-6-104 99-153 187-111 19 9 31 26 39 46" id="bV"/><g id="K"><use transform="matrix(0.06172839506172839,0,0,0.06172839506172839,0,0)" xlink:href="#bV"/><use transform="matrix(0.06172839506172839,0,0,0.06172839506172839,15.987654320987653,0)" xlink:href="#bh"/><use transform="matrix(0.06172839506172839,0,0,0.06172839506172839,28.333333333333332,0)" xlink:href="#aM"/><use transform="matrix(0.06172839506172839,0,0,0.06172839506172839,35.67901234567901,0)" xlink:href="#aM"/><use transform="matrix(0.06172839506172839,0,0,0.06172839506172839,43.02469135802469,0)" xlink:href="#bj"/><use transform="matrix(0.06172839506172839,0,0,0.06172839506172839,55.37037037037037,0)" xlink:href="#bi"/><use transform="matrix(0.06172839506172839,0,0,0.06172839506172839,66.48148148148148,0)" xlink:href="#aK"/></g><g id="L"><use transform="matrix(0.06172839506172839,0,0,0.06172839506172839,0,0)" xlink:href="#bT"/><use transform="matrix(0.06172839506172839,0,0,0.06172839506172839,14.814814814814813,0)" xlink:href="#bg"/><use transform="matrix(0.06172839506172839,0,0,0.06172839506172839,27.160493827160494,0)" xlink:href="#bu"/><use transform="matrix(0.06172839506172839,0,0,0.06172839506172839,38.27160493827161,0)" xlink:href="#bU"/><use transform="matrix(0.06172839506172839,0,0,0.06172839506172839,54.25925925925926,0)" xlink:href="#bj"/><use transform="matrix(0.06172839506172839,0,0,0.06172839506172839,66.60493827160494,0)" xlink:href="#aM"/></g><path fill="#3a414a" d="M33 0v-38h34V0H33" id="bW"/><g id="M"><use transform="matrix(0.06172839506172839,0,0,0.06172839506172839,0,0)" xlink:href="#bQ"/><use transform="matrix(0.06172839506172839,0,0,0.06172839506172839,15.987654320987653,0)" xlink:href="#bh"/><use transform="matrix(0.06172839506172839,0,0,0.06172839506172839,28.333333333333332,0)" xlink:href="#bW"/></g><g id="N"><use transform="matrix(0.06172839506172839,0,0,0.06172839506172839,0,0)" xlink:href="#bh"/><use transform="matrix(0.06172839506172839,0,0,0.06172839506172839,12.345679012345679,0)" xlink:href="#bN"/></g><g id="O"><use transform="matrix(0.06172839506172839,0,0,0.06172839506172839,0,0)" xlink:href="#bC"/><use transform="matrix(0.06172839506172839,0,0,0.06172839506172839,17.28395061728395,0)" xlink:href="#bl"/><use transform="matrix(0.06172839506172839,0,0,0.06172839506172839,29.629629629629626,0)" xlink:href="#bj"/><use transform="matrix(0.06172839506172839,0,0,0.06172839506172839,41.9753086419753,0)" xlink:href="#bu"/><use transform="matrix(0.06172839506172839,0,0,0.06172839506172839,53.08641975308642,0)" xlink:href="#aK"/><use transform="matrix(0.06172839506172839,0,0,0.06172839506172839,59.25925925925926,0)" xlink:href="#bo"/><use transform="matrix(0.06172839506172839,0,0,0.06172839506172839,64.1358024691358,0)" xlink:href="#bh"/><use transform="matrix(0.06172839506172839,0,0,0.06172839506172839,76.48148148148148,0)" xlink:href="#bg"/><use transform="matrix(0.06172839506172839,0,0,0.06172839506172839,88.82716049382717,0)" xlink:href="#bu"/></g><path fill="#3a414a" d="M18-100v-36l175-74v27L42-118l151 64v27" id="bX"/><use transform="matrix(0.06172839506172839,0,0,0.06172839506172839,0,0)" xlink:href="#bX" id="P"/><path fill="#3a414a" d="M27 0v-27h64v-190l-56 39v-29l58-41h29v221h61V0H27" id="bY"/><path fill="#3a414a" d="M54-142c48-35 137-8 131 61C196 18 31 33 14-55l32-4c7 23 22 37 52 37 35-1 51-22 54-58 4-55-73-65-99-34H22l8-134h141v27H59" id="bZ"/><g id="Q"><use transform="matrix(0.06172839506172839,0,0,0.06172839506172839,0,0)" xlink:href="#bY"/><use transform="matrix(0.06172839506172839,0,0,0.06172839506172839,12.345679012345679,0)" xlink:href="#bZ"/></g><g id="R"><use transform="matrix(0.04938271604938272,0,0,0.04938271604938272,0,0)" xlink:href="#bx"/><use transform="matrix(0.04938271604938272,0,0,0.04938271604938272,10.864197530864198,0)" xlink:href="#by"/><use transform="matrix(0.04938271604938272,0,0,0.04938271604938272,20.74074074074074,0)" xlink:href="#bz"/></g><g id="S"><use transform="matrix(0.06172839506172839,0,0,0.06172839506172839,0,0)" xlink:href="#br"/><use transform="matrix(0.06172839506172839,0,0,0.06172839506172839,14.814814814814813,0)" xlink:href="#bh"/><use transform="matrix(0.06172839506172839,0,0,0.06172839506172839,27.160493827160494,0)" xlink:href="#bo"/><use transform="matrix(0.06172839506172839,0,0,0.06172839506172839,32.03703703703704,0)" xlink:href="#bg"/><use transform="matrix(0.06172839506172839,0,0,0.06172839506172839,44.382716049382715,0)" xlink:href="#aK"/><use transform="matrix(0.06172839506172839,0,0,0.06172839506172839,50.55555555555556,0)" xlink:href="#bu"/></g><g id="T"><use transform="matrix(0.06172839506172839,0,0,0.06172839506172839,0,0)" xlink:href="#bm"/><use transform="matrix(0.06172839506172839,0,0,0.06172839506172839,11.11111111111111,0)" xlink:href="#bj"/><use transform="matrix(0.06172839506172839,0,0,0.06172839506172839,23.45679012345679,0)" xlink:href="#aM"/><use transform="matrix(0.06172839506172839,0,0,0.06172839506172839,30.80246913580247,0)" xlink:href="#bo"/><use transform="matrix(0.06172839506172839,0,0,0.06172839506172839,35.67901234567901,0)" xlink:href="#bN"/><use transform="matrix(0.06172839506172839,0,0,0.06172839506172839,41.851851851851855,0)" xlink:href="#bo"/><use transform="matrix(0.06172839506172839,0,0,0.06172839506172839,46.7283950617284,0)" xlink:href="#bi"/><use transform="matrix(0.06172839506172839,0,0,0.06172839506172839,57.839506172839506,0)" xlink:href="#aL"/><use transform="matrix(0.06172839506172839,0,0,0.06172839506172839,70.18518518518519,0)" xlink:href="#aK"/><use transform="matrix(0.06172839506172839,0,0,0.06172839506172839,76.35802469135803,0)" xlink:href="#bo"/><use transform="matrix(0.06172839506172839,0,0,0.06172839506172839,81.23456790123457,0)" xlink:href="#bh"/><use transform="matrix(0.06172839506172839,0,0,0.06172839506172839,93.58024691358025,0)" xlink:href="#bg"/></g><g id="U"><use transform="matrix(0.04938271604938272,0,0,0.04938271604938272,0,0)" xlink:href="#bA"/><use transform="matrix(0.04938271604938272,0,0,0.04938271604938272,12.790123456790125,0)" xlink:href="#bB"/></g><g id="V"><use transform="matrix(0.04938271604938272,0,0,0.04938271604938272,0,0)" xlink:href="#bI"/><use transform="matrix(0.04938271604938272,0,0,0.04938271604938272,13.827160493827162,0)" xlink:href="#bJ"/><use transform="matrix(0.04938271604938272,0,0,0.04938271604938272,24.641975308641975,0)" xlink:href="#bK"/><use transform="matrix(0.04938271604938272,0,0,0.04938271604938272,29.58024691358025,0)" xlink:href="#bF"/></g><path fill="#3a414a" d="M197 0v-115H63V0H30v-248h33v105h134v-105h34V0h-34" id="ca"/><path fill="#3a414a" d="M177-190C167-65 218 103 67 71c-23-6-38-20-44-43l32-5c15 47 100 32 89-28v-30C133-14 115 1 83 1 29 1 15-40 15-95c0-56 16-97 71-98 29-1 48 16 59 35 1-10 0-23 2-32h30zM94-22c36 0 50-32 50-73 0-42-14-75-50-75-39 0-46 34-46 75s6 73 46 73" id="cb"/><path fill="#3a414a" d="M106-169C34-169 62-67 57 0H25v-261h32l-1 103c12-21 28-36 61-36 89 0 53 116 60 194h-32v-121c2-32-8-49-39-48" id="cc"/><g id="W"><use transform="matrix(0.06172839506172839,0,0,0.06172839506172839,0,0)" xlink:href="#ca"/><use transform="matrix(0.06172839506172839,0,0,0.06172839506172839,15.987654320987653,0)" xlink:href="#bo"/><use transform="matrix(0.06172839506172839,0,0,0.06172839506172839,20.864197530864196,0)" xlink:href="#cb"/><use transform="matrix(0.06172839506172839,0,0,0.06172839506172839,33.20987654320987,0)" xlink:href="#cc"/></g><g id="X"><use transform="matrix(0.06172839506172839,0,0,0.06172839506172839,0,0)" xlink:href="#aJ"/><use transform="matrix(0.06172839506172839,0,0,0.06172839506172839,14.814814814814813,0)" xlink:href="#bi"/><use transform="matrix(0.06172839506172839,0,0,0.06172839506172839,25.925925925925924,0)" xlink:href="#bh"/><use transform="matrix(0.06172839506172839,0,0,0.06172839506172839,38.2716049382716,0)" xlink:href="#aM"/><use transform="matrix(0.06172839506172839,0,0,0.06172839506172839,45.61728395061728,0)" xlink:href="#bj"/></g><g id="Y"><use transform="matrix(0.06172839506172839,0,0,0.06172839506172839,0,0)" xlink:href="#aJ"/><use transform="matrix(0.06172839506172839,0,0,0.06172839506172839,14.814814814814813,0)" xlink:href="#cc"/><use transform="matrix(0.06172839506172839,0,0,0.06172839506172839,27.160493827160494,0)" xlink:href="#bj"/><use transform="matrix(0.06172839506172839,0,0,0.06172839506172839,39.50617283950617,0)" xlink:href="#bj"/><use transform="matrix(0.06172839506172839,0,0,0.06172839506172839,51.85185185185185,0)" xlink:href="#aK"/></g><g id="Z"><use transform="matrix(0.06172839506172839,0,0,0.06172839506172839,0,0)" xlink:href="#bS"/><use transform="matrix(0.06172839506172839,0,0,0.06172839506172839,15.987654320987653,0)" xlink:href="#bk"/><use transform="matrix(0.06172839506172839,0,0,0.06172839506172839,28.333333333333332,0)" xlink:href="#bp"/><use transform="matrix(0.06172839506172839,0,0,0.06172839506172839,40.67901234567901,0)" xlink:href="#aL"/><use transform="matrix(0.06172839506172839,0,0,0.06172839506172839,53.02469135802469,0)" xlink:href="#aK"/><use transform="matrix(0.06172839506172839,0,0,0.06172839506172839,59.19753086419753,0)" xlink:href="#bj"/></g><g id="aa"><use transform="matrix(0.06172839506172839,0,0,0.06172839506172839,0,0)" xlink:href="#bR"/><use transform="matrix(0.06172839506172839,0,0,0.06172839506172839,15.987654320987653,0)" xlink:href="#bo"/><use transform="matrix(0.06172839506172839,0,0,0.06172839506172839,20.864197530864196,0)" xlink:href="#bu"/><use transform="matrix(0.06172839506172839,0,0,0.06172839506172839,31.975308641975307,0)" xlink:href="#bk"/><use transform="matrix(0.06172839506172839,0,0,0.06172839506172839,44.32098765432099,0)" xlink:href="#bn"/><use transform="matrix(0.06172839506172839,0,0,0.06172839506172839,49.19753086419753,0)" xlink:href="#aL"/><use transform="matrix(0.06172839506172839,0,0,0.06172839506172839,61.54320987654321,0)" xlink:href="#bs"/></g><g id="ab"><use transform="matrix(0.06172839506172839,0,0,0.06172839506172839,0,0)" xlink:href="#bT"/><use transform="matrix(0.06172839506172839,0,0,0.06172839506172839,14.814814814814813,0)" xlink:href="#bk"/><use transform="matrix(0.06172839506172839,0,0,0.06172839506172839,27.160493827160494,0)" xlink:href="#bk"/><use transform="matrix(0.06172839506172839,0,0,0.06172839506172839,39.50617283950617,0)" xlink:href="#aM"/><use transform="matrix(0.06172839506172839,0,0,0.06172839506172839,46.85185185185185,0)" xlink:href="#bh"/><use transform="matrix(0.06172839506172839,0,0,0.06172839506172839,59.197530864197525,0)" xlink:href="#bk"/><use transform="matrix(0.06172839506172839,0,0,0.06172839506172839,71.5432098765432,0)" xlink:href="#aM"/><use transform="matrix(0.06172839506172839,0,0,0.06172839506172839,78.88888888888889,0)" xlink:href="#bo"/><use transform="matrix(0.06172839506172839,0,0,0.06172839506172839,83.76543209876543,0)" xlink:href="#aL"/><use transform="matrix(0.06172839506172839,0,0,0.06172839506172839,96.11111111111111,0)" xlink:href="#aK"/><use transform="matrix(0.06172839506172839,0,0,0.06172839506172839,102.28395061728395,0)" xlink:href="#bj"/></g><path fill="#3a414a" d="M30 0v-248h187v28H63v79h144v27H63v87h162V0H30" id="cd"/><g id="ac"><use transform="matrix(0.06172839506172839,0,0,0.06172839506172839,0,0)" xlink:href="#cd"/><use transform="matrix(0.06172839506172839,0,0,0.06172839506172839,14.814814814814813,0)" xlink:href="#bg"/><use transform="matrix(0.06172839506172839,0,0,0.06172839506172839,27.160493827160494,0)" xlink:href="#bp"/></g><path fill="#3a414a" d="M143 4C61 4 22-44 18-125c-5-107 100-154 193-111 17 8 29 25 37 43l-32 9c-13-25-37-40-76-40-61 0-88 39-88 99 0 61 29 100 91 101 35 0 62-11 79-27v-45h-74v-28h105v86C228-13 192 4 143 4" id="ce"/><g id="ad"><use transform="matrix(0.06172839506172839,0,0,0.06172839506172839,0,0)" xlink:href="#ce"/><use transform="matrix(0.06172839506172839,0,0,0.06172839506172839,17.28395061728395,0)" xlink:href="#aL"/><use transform="matrix(0.06172839506172839,0,0,0.06172839506172839,29.629629629629626,0)" xlink:href="#bv"/><use transform="matrix(0.06172839506172839,0,0,0.06172839506172839,48.08641975308642,0)" xlink:href="#bj"/></g><g id="ae"><use transform="matrix(0.06172839506172839,0,0,0.06172839506172839,0,0)" xlink:href="#bw"/><use transform="matrix(0.06172839506172839,0,0,0.06172839506172839,18.456790123456788,0)" xlink:href="#bj"/><use transform="matrix(0.06172839506172839,0,0,0.06172839506172839,30.80246913580247,0)" xlink:href="#bu"/><use transform="matrix(0.06172839506172839,0,0,0.06172839506172839,41.91358024691358,0)" xlink:href="#bu"/><use transform="matrix(0.06172839506172839,0,0,0.06172839506172839,53.0246913580247,0)" xlink:href="#aL"/><use transform="matrix(0.06172839506172839,0,0,0.06172839506172839,65.37037037037038,0)" xlink:href="#cb"/><use transform="matrix(0.06172839506172839,0,0,0.06172839506172839,77.71604938271606,0)" xlink:href="#bj"/></g><path fill="#3a414a" d="M233-177c-1 41-23 64-60 70L243 0h-38l-65-103H63V0H30v-248c88 3 205-21 203 71zM63-129c60-2 137 13 137-47 0-61-80-42-137-45v92" id="cf"/><g id="af"><use transform="matrix(0.06172839506172839,0,0,0.06172839506172839,0,0)" xlink:href="#cf"/><use transform="matrix(0.06172839506172839,0,0,0.06172839506172839,15.987654320987653,0)" xlink:href="#bj"/><use transform="matrix(0.06172839506172839,0,0,0.06172839506172839,28.333333333333332,0)" xlink:href="#aL"/><use transform="matrix(0.06172839506172839,0,0,0.06172839506172839,40.67901234567901,0)" xlink:href="#bp"/></g><g id="ag"><use transform="matrix(0.06172839506172839,0,0,0.06172839506172839,0,0)" xlink:href="#ca"/><use transform="matrix(0.06172839506172839,0,0,0.06172839506172839,15.987654320987653,0)" xlink:href="#bo"/><use transform="matrix(0.06172839506172839,0,0,0.06172839506172839,20.864197530864196,0)" xlink:href="#cb"/><use transform="matrix(0.06172839506172839,0,0,0.06172839506172839,33.20987654320987,0)" xlink:href="#cc"/></g><g id="ah"><use transform="matrix(0.06172839506172839,0,0,0.06172839506172839,0,0)" xlink:href="#aJ"/><use transform="matrix(0.06172839506172839,0,0,0.06172839506172839,14.814814814814813,0)" xlink:href="#bi"/><use transform="matrix(0.06172839506172839,0,0,0.06172839506172839,25.925925925925924,0)" xlink:href="#bh"/><use transform="matrix(0.06172839506172839,0,0,0.06172839506172839,38.2716049382716,0)" xlink:href="#aM"/><use transform="matrix(0.06172839506172839,0,0,0.06172839506172839,45.61728395061728,0)" xlink:href="#bj"/><use transform="matrix(0.06172839506172839,0,0,0.06172839506172839,57.962962962962955,0)" xlink:href="#bu"/></g><g id="ai"><use transform="matrix(0.06172839506172839,0,0,0.06172839506172839,0,0)" xlink:href="#bN"/><use transform="matrix(0.06172839506172839,0,0,0.06172839506172839,6.172839506172839,0)" xlink:href="#aM"/><use transform="matrix(0.06172839506172839,0,0,0.06172839506172839,13.518518518518519,0)" xlink:href="#bh"/><use transform="matrix(0.06172839506172839,0,0,0.06172839506172839,25.864197530864196,0)" xlink:href="#bv"/></g><g id="aj"><use transform="matrix(0.06172839506172839,0,0,0.06172839506172839,0,0)" xlink:href="#ce"/><use transform="matrix(0.06172839506172839,0,0,0.06172839506172839,17.28395061728395,0)" xlink:href="#bh"/><use transform="matrix(0.06172839506172839,0,0,0.06172839506172839,29.629629629629626,0)" xlink:href="#bh"/><use transform="matrix(0.06172839506172839,0,0,0.06172839506172839,41.9753086419753,0)" xlink:href="#cb"/><use transform="matrix(0.06172839506172839,0,0,0.06172839506172839,54.32098765432098,0)" xlink:href="#bn"/><use transform="matrix(0.06172839506172839,0,0,0.06172839506172839,59.197530864197525,0)" xlink:href="#bj"/></g><g id="ak"><use transform="matrix(0.06172839506172839,0,0,0.06172839506172839,0,0)" xlink:href="#aJ"/><use transform="matrix(0.06172839506172839,0,0,0.06172839506172839,14.814814814814813,0)" xlink:href="#cc"/><use transform="matrix(0.06172839506172839,0,0,0.06172839506172839,27.160493827160494,0)" xlink:href="#bj"/><use transform="matrix(0.06172839506172839,0,0,0.06172839506172839,39.50617283950617,0)" xlink:href="#bj"/><use transform="matrix(0.06172839506172839,0,0,0.06172839506172839,51.85185185185185,0)" xlink:href="#aK"/></g><path fill="#333" d="M24-248c120-7 223 5 221 122C244-46 201 0 124 0H24v-248zM76-40c74 7 117-18 117-86 0-67-45-88-117-82v168" id="cg"/><path fill="#333" d="M135-194c53 0 70 44 70 98 0 56-19 98-73 100-31 1-45-17-59-34 3 33 2 69 2 105H25l-1-265h48c2 10 0 23 3 31 11-24 29-35 60-35zM114-30c33 0 39-31 40-66 0-38-9-64-40-64-56 0-55 130 0 130" id="ch"/><path fill="#333" d="M25 0v-261h50V0H25" id="ci"/><path fill="#333" d="M123 10C108 53 80 86 19 72V37c35 8 53-11 59-39L3-190h52l48 148c12-52 28-100 44-148h51" id="cj"/><g id="al"><use transform="matrix(0.04938271604938272,0,0,0.04938271604938272,0,0)" xlink:href="#cg"/><use transform="matrix(0.04938271604938272,0,0,0.04938271604938272,12.790123456790125,0)" xlink:href="#bK"/><use transform="matrix(0.04938271604938272,0,0,0.04938271604938272,17.7283950617284,0)" xlink:href="#bz"/><use transform="matrix(0.04938271604938272,0,0,0.04938271604938272,27.604938271604947,0)" xlink:href="#ch"/><use transform="matrix(0.04938271604938272,0,0,0.04938271604938272,38.41975308641976,0)" xlink:href="#ci"/><use transform="matrix(0.04938271604938272,0,0,0.04938271604938272,43.35802469135803,0)" xlink:href="#bG"/><use transform="matrix(0.04938271604938272,0,0,0.04938271604938272,53.23456790123457,0)" xlink:href="#cj"/></g><path fill="#333" d="M186 0v-106H76V0H24v-248h52v99h110v-99h50V0h-50" id="ck"/><path fill="#333" d="M195-6C206 82 75 100 31 46c-4-6-6-13-8-21l49-6c3 16 16 24 34 25 40 0 42-37 40-79-11 22-30 35-61 35-53 0-70-43-70-97 0-56 18-96 73-97 30 0 46 14 59 34l2-30h47zm-90-29c32 0 41-27 41-63 0-35-9-62-40-62-32 0-39 29-40 63 0 36 9 62 39 62" id="cl"/><path fill="#333" d="M114-157C55-157 80-60 75 0H25v-261h50l-1 109c12-26 28-41 61-42 86-1 58 113 63 194h-50c-7-57 23-157-34-157" id="cm"/><g id="am"><use transform="matrix(0.04938271604938272,0,0,0.04938271604938272,0,0)" xlink:href="#ck"/><use transform="matrix(0.04938271604938272,0,0,0.04938271604938272,12.790123456790125,0)" xlink:href="#bK"/><use transform="matrix(0.04938271604938272,0,0,0.04938271604938272,17.7283950617284,0)" xlink:href="#cl"/><use transform="matrix(0.04938271604938272,0,0,0.04938271604938272,28.54320987654322,0)" xlink:href="#cm"/></g><path fill="#333" d="M190-63c-7 42-38 67-86 67-59 0-84-38-90-98-12-110 154-137 174-36l-49 2c-2-19-15-32-35-32-30 0-35 28-38 64-6 74 65 87 74 30" id="cn"/><g id="an"><use transform="matrix(0.04938271604938272,0,0,0.04938271604938272,0,0)" xlink:href="#bE"/><use transform="matrix(0.04938271604938272,0,0,0.04938271604938272,11.851851851851853,0)" xlink:href="#cn"/><use transform="matrix(0.04938271604938272,0,0,0.04938271604938272,21.7283950617284,0)" xlink:href="#bB"/><use transform="matrix(0.04938271604938272,0,0,0.04938271604938272,32.543209876543216,0)" xlink:href="#bH"/><use transform="matrix(0.04938271604938272,0,0,0.04938271604938272,39.4567901234568,0)" xlink:href="#by"/><use transform="matrix(0.04938271604938272,0,0,0.04938271604938272,49.33333333333334,0)" xlink:href="#bz"/></g><g id="ao"><use transform="matrix(0.06172839506172839,0,0,0.06172839506172839,0,0)" xlink:href="#bf"/><use transform="matrix(0.06172839506172839,0,0,0.06172839506172839,6.172839506172839,0)" xlink:href="#bN"/></g><g id="ap"><use transform="matrix(0.06172839506172839,0,0,0.06172839506172839,0,0)" xlink:href="#bk"/><use transform="matrix(0.06172839506172839,0,0,0.06172839506172839,12.345679012345679,0)" xlink:href="#aM"/><use transform="matrix(0.06172839506172839,0,0,0.06172839506172839,19.691358024691358,0)" xlink:href="#bj"/><use transform="matrix(0.06172839506172839,0,0,0.06172839506172839,32.03703703703704,0)" xlink:href="#bu"/><use transform="matrix(0.06172839506172839,0,0,0.06172839506172839,43.14814814814815,0)" xlink:href="#bj"/><use transform="matrix(0.06172839506172839,0,0,0.06172839506172839,55.49382716049383,0)" xlink:href="#bg"/><use transform="matrix(0.06172839506172839,0,0,0.06172839506172839,67.8395061728395,0)" xlink:href="#aK"/></g><g id="aq"><use transform="matrix(0.06172839506172839,0,0,0.06172839506172839,0,0)" xlink:href="#bh"/><use transform="matrix(0.06172839506172839,0,0,0.06172839506172839,12.345679012345679,0)" xlink:href="#aM"/></g><g id="ar"><use transform="matrix(0.06172839506172839,0,0,0.06172839506172839,0,0)" xlink:href="#aK"/><use transform="matrix(0.06172839506172839,0,0,0.06172839506172839,6.172839506172839,0)" xlink:href="#cc"/><use transform="matrix(0.06172839506172839,0,0,0.06172839506172839,18.51851851851852,0)" xlink:href="#bj"/></g><g id="as"><use transform="matrix(0.06172839506172839,0,0,0.06172839506172839,0,0)" xlink:href="#bw"/><use transform="matrix(0.06172839506172839,0,0,0.06172839506172839,18.456790123456788,0)" xlink:href="#bj"/><use transform="matrix(0.06172839506172839,0,0,0.06172839506172839,30.80246913580247,0)" xlink:href="#bu"/><use transform="matrix(0.06172839506172839,0,0,0.06172839506172839,41.91358024691358,0)" xlink:href="#bu"/><use transform="matrix(0.06172839506172839,0,0,0.06172839506172839,53.0246913580247,0)" xlink:href="#aL"/><use transform="matrix(0.06172839506172839,0,0,0.06172839506172839,65.37037037037038,0)" xlink:href="#cb"/><use transform="matrix(0.06172839506172839,0,0,0.06172839506172839,77.71604938271606,0)" xlink:href="#bj"/></g><path fill="#3a414a" d="M109-170H84l-4-78h32zm-65 0H19l-4-78h33" id="co"/><g id="at"><use transform="matrix(0.06172839506172839,0,0,0.06172839506172839,0,0)" xlink:href="#co"/><use transform="matrix(0.06172839506172839,0,0,0.06172839506172839,7.8395061728395055,0)" xlink:href="#bQ"/><use transform="matrix(0.06172839506172839,0,0,0.06172839506172839,23.827160493827158,0)" xlink:href="#bh"/></g><g id="au"><use transform="matrix(0.06172839506172839,0,0,0.06172839506172839,0,0)" xlink:href="#bu"/><use transform="matrix(0.06172839506172839,0,0,0.06172839506172839,11.11111111111111,0)" xlink:href="#bi"/><use transform="matrix(0.06172839506172839,0,0,0.06172839506172839,22.22222222222222,0)" xlink:href="#bh"/><use transform="matrix(0.06172839506172839,0,0,0.06172839506172839,34.5679012345679,0)" xlink:href="#aM"/><use transform="matrix(0.06172839506172839,0,0,0.06172839506172839,41.913580246913575,0)" xlink:href="#bj"/><use transform="matrix(0.06172839506172839,0,0,0.06172839506172839,54.25925925925925,0)" xlink:href="#bu"/><use transform="matrix(0.06172839506172839,0,0,0.06172839506172839,65.37037037037037,0)" xlink:href="#bt"/></g><g id="av"><use transform="matrix(0.06172839506172839,0,0,0.06172839506172839,0,0)" xlink:href="#ca"/><use transform="matrix(0.06172839506172839,0,0,0.06172839506172839,15.987654320987653,0)" xlink:href="#bh"/></g><g id="aw"><use transform="matrix(0.06172839506172839,0,0,0.06172839506172839,0,0)" xlink:href="#aK"/><use transform="matrix(0.06172839506172839,0,0,0.06172839506172839,6.172839506172839,0)" xlink:href="#bh"/></g><g id="ax"><use transform="matrix(0.06172839506172839,0,0,0.06172839506172839,0,0)" xlink:href="#br"/><use transform="matrix(0.06172839506172839,0,0,0.06172839506172839,14.814814814814813,0)" xlink:href="#bn"/><use transform="matrix(0.06172839506172839,0,0,0.06172839506172839,19.691358024691354,0)" xlink:href="#aL"/><use transform="matrix(0.06172839506172839,0,0,0.06172839506172839,32.03703703703703,0)" xlink:href="#bs"/></g><g id="ay"><use transform="matrix(0.06172839506172839,0,0,0.06172839506172839,0,0)" xlink:href="#bf"/><use transform="matrix(0.06172839506172839,0,0,0.06172839506172839,6.172839506172839,0)" xlink:href="#bg"/><use transform="matrix(0.06172839506172839,0,0,0.06172839506172839,18.51851851851852,0)" xlink:href="#bu"/><use transform="matrix(0.06172839506172839,0,0,0.06172839506172839,29.62962962962963,0)" xlink:href="#aK"/><use transform="matrix(0.06172839506172839,0,0,0.06172839506172839,35.80246913580247,0)" xlink:href="#aM"/><use transform="matrix(0.06172839506172839,0,0,0.06172839506172839,43.148148148148145,0)" xlink:href="#bl"/><use transform="matrix(0.06172839506172839,0,0,0.06172839506172839,55.49382716049382,0)" xlink:href="#bi"/><use transform="matrix(0.06172839506172839,0,0,0.06172839506172839,66.60493827160494,0)" xlink:href="#aK"/><use transform="matrix(0.06172839506172839,0,0,0.06172839506172839,72.77777777777777,0)" xlink:href="#bo"/><use transform="matrix(0.06172839506172839,0,0,0.06172839506172839,77.65432098765432,0)" xlink:href="#bh"/><use transform="matrix(0.06172839506172839,0,0,0.06172839506172839,90,0)" xlink:href="#bg"/><use transform="matrix(0.06172839506172839,0,0,0.06172839506172839,102.34567901234568,0)" xlink:href="#bu"/></g><path fill="#333" d="M121-226c-27-7-43 5-38 36h38v33H83V0H34v-157H6v-33h28c-9-59 32-81 87-68v32" id="cp"/><g id="az"><use transform="matrix(0.04938271604938272,0,0,0.04938271604938272,0,0)" xlink:href="#bK"/><use transform="matrix(0.04938271604938272,0,0,0.04938271604938272,4.938271604938272,0)" xlink:href="#cp"/></g><path fill="#333" d="M24 0v-248h52V0H24" id="cq"/><path fill="#333" d="M135-194c87-1 58 113 63 194h-50c-7-57 23-157-34-157-59 0-34 97-39 157H25l-1-190h47c2 12-1 28 3 38 12-26 28-41 61-42" id="cr"/><g id="aA"><use transform="matrix(0.04938271604938272,0,0,0.04938271604938272,0,0)" xlink:href="#cq"/><use transform="matrix(0.04938271604938272,0,0,0.04938271604938272,4.938271604938272,0)" xlink:href="#cr"/><use transform="matrix(0.04938271604938272,0,0,0.04938271604938272,15.753086419753087,0)" xlink:href="#bF"/><use transform="matrix(0.04938271604938272,0,0,0.04938271604938272,21.62962962962963,0)" xlink:href="#bH"/><use transform="matrix(0.04938271604938272,0,0,0.04938271604938272,28.543209876543205,0)" xlink:href="#bB"/></g><path fill="#333" d="M135-194c52 0 70 43 70 98 0 56-19 99-73 100-30 1-46-15-58-35L72 0H24l1-261h50v104c11-23 29-37 60-37zM114-30c31 0 40-27 40-66 0-37-7-63-39-63s-41 28-41 65c0 36 8 64 40 64" id="cs"/><g id="aB"><use transform="matrix(0.04938271604938272,0,0,0.04938271604938272,0,0)" xlink:href="#cs"/><use transform="matrix(0.04938271604938272,0,0,0.04938271604938272,10.814814814814815,0)" xlink:href="#by"/><use transform="matrix(0.04938271604938272,0,0,0.04938271604938272,20.69135802469136,0)" xlink:href="#cp"/><use transform="matrix(0.04938271604938272,0,0,0.04938271604938272,26.567901234567902,0)" xlink:href="#bB"/><use transform="matrix(0.04938271604938272,0,0,0.04938271604938272,37.38271604938272,0)" xlink:href="#bH"/><use transform="matrix(0.04938271604938272,0,0,0.04938271604938272,44.296296296296305,0)" xlink:href="#by"/></g><g id="aC"><use transform="matrix(0.04938271604938272,0,0,0.04938271604938272,0,0)" xlink:href="#cq"/><use transform="matrix(0.04938271604938272,0,0,0.04938271604938272,4.938271604938272,0)" xlink:href="#cr"/><use transform="matrix(0.04938271604938272,0,0,0.04938271604938272,15.753086419753087,0)" xlink:href="#bz"/><use transform="matrix(0.04938271604938272,0,0,0.04938271604938272,25.629629629629633,0)" xlink:href="#bF"/><use transform="matrix(0.04938271604938272,0,0,0.04938271604938272,31.506172839506174,0)" xlink:href="#bH"/><use transform="matrix(0.04938271604938272,0,0,0.04938271604938272,38.41975308641976,0)" xlink:href="#bJ"/><use transform="matrix(0.04938271604938272,0,0,0.04938271604938272,49.23456790123458,0)" xlink:href="#cn"/><use transform="matrix(0.04938271604938272,0,0,0.04938271604938272,59.111111111111114,0)" xlink:href="#bF"/><use transform="matrix(0.04938271604938272,0,0,0.04938271604938272,64.98765432098766,0)" xlink:href="#bK"/><use transform="matrix(0.04938271604938272,0,0,0.04938271604938272,69.92592592592592,0)" xlink:href="#bB"/><use transform="matrix(0.04938271604938272,0,0,0.04938271604938272,80.74074074074073,0)" xlink:href="#cr"/><use transform="matrix(0.04938271604938272,0,0,0.04938271604938272,91.55555555555554,0)" xlink:href="#bz"/></g><path fill="#333" d="M240-174c0 40-23 61-54 70L253 0h-59l-57-94H76V0H24v-248c93 4 217-23 216 74zM76-134c48-2 112 12 112-38 0-48-66-32-112-35v73" id="ct"/><g id="aD"><use transform="matrix(0.04938271604938272,0,0,0.04938271604938272,0,0)" xlink:href="#ct"/><use transform="matrix(0.04938271604938272,0,0,0.04938271604938272,12.790123456790125,0)" xlink:href="#by"/><use transform="matrix(0.04938271604938272,0,0,0.04938271604938272,22.66666666666667,0)" xlink:href="#bF"/><use transform="matrix(0.04938271604938272,0,0,0.04938271604938272,28.54320987654322,0)" xlink:href="#bJ"/><use transform="matrix(0.04938271604938272,0,0,0.04938271604938272,39.35802469135803,0)" xlink:href="#bH"/><use transform="matrix(0.04938271604938272,0,0,0.04938271604938272,46.271604938271615,0)" xlink:href="#cr"/></g><g id="aE"><use transform="matrix(0.04938271604938272,0,0,0.04938271604938272,0,0)" xlink:href="#bF"/><use transform="matrix(0.04938271604938272,0,0,0.04938271604938272,5.8765432098765435,0)" xlink:href="#bB"/></g><path fill="#333" d="M230 0l2-204L168 0h-37L68-204 70 0H24v-248h70l56 185 57-185h69V0h-46" id="cu"/><g id="aF"><use transform="matrix(0.04938271604938272,0,0,0.04938271604938272,0,0)" xlink:href="#cu"/><use transform="matrix(0.04938271604938272,0,0,0.04938271604938272,14.765432098765434,0)" xlink:href="#by"/><use transform="matrix(0.04938271604938272,0,0,0.04938271604938272,24.641975308641978,0)" xlink:href="#cr"/><use transform="matrix(0.04938271604938272,0,0,0.04938271604938272,35.45679012345679,0)" xlink:href="#bJ"/></g><g id="aG"><use transform="matrix(0.06172839506172839,0,0,0.06172839506172839,0,0)" xlink:href="#cd"/><use transform="matrix(0.06172839506172839,0,0,0.06172839506172839,14.814814814814813,0)" xlink:href="#bg"/><use transform="matrix(0.06172839506172839,0,0,0.06172839506172839,27.160493827160494,0)" xlink:href="#bp"/></g><g id="aH"><use transform="matrix(0.06172839506172839,0,0,0.06172839506172839,0,0)" xlink:href="#bR"/><use transform="matrix(0.06172839506172839,0,0,0.06172839506172839,15.987654320987653,0)" xlink:href="#bo"/><use transform="matrix(0.06172839506172839,0,0,0.06172839506172839,20.864197530864196,0)" xlink:href="#bu"/><use transform="matrix(0.06172839506172839,0,0,0.06172839506172839,31.975308641975307,0)" xlink:href="#bk"/><use transform="matrix(0.06172839506172839,0,0,0.06172839506172839,44.32098765432099,0)" xlink:href="#bn"/><use transform="matrix(0.06172839506172839,0,0,0.06172839506172839,49.19753086419753,0)" xlink:href="#aL"/><use transform="matrix(0.06172839506172839,0,0,0.06172839506172839,61.54320987654321,0)" xlink:href="#bs"/></g><g id="aI"><use transform="matrix(0.06172839506172839,0,0,0.06172839506172839,0,0)" xlink:href="#cd"/><use transform="matrix(0.06172839506172839,0,0,0.06172839506172839,14.814814814814813,0)" xlink:href="#bg"/><use transform="matrix(0.06172839506172839,0,0,0.06172839506172839,27.160493827160494,0)" xlink:href="#bp"/></g></defs></g></svg>